<?xml version="1.0" encoding="UTF-8"?>
<!DOCTYPE svg PUBLIC "-//W3C//DTD SVG 1.1//EN" "http://www.w3.org/Graphics/SVG/1.1/DTD/svg11.dtd">
<!-- Creator: CorelDRAW X7 -->
<svg xmlns="http://www.w3.org/2000/svg" xml:space="preserve" width="1000px" height="1000px" version="1.1" style="shape-rendering:geometricPrecision; text-rendering:geometricPrecision; image-rendering:optimizeQuality; fill-rule:evenodd; clip-rule:evenodd"
viewBox="0 0 1000 1000"
 xmlns:xlink="http://www.w3.org/1999/xlink">
 <defs>
  <style type="text/css">
   <![CDATA[
    .str0 {stroke:black;stroke-width:2.08347}
    .fil81 {fill:none}
    .fil45 {fill:#FFFEF8}
    .fil44 {fill:#FFFEF6}
    .fil43 {fill:#FFFDF2}
    .fil4 {fill:#FDF1F6}
    .fil36 {fill:#FFEED5}
    .fil75 {fill:#FFE7C0}
    .fil59 {fill:#FEE4C7}
    .fil9 {fill:#FCDEDB}
    .fil58 {fill:#FDDCC5}
    .fil17 {fill:#FEDCB8}
    .fil27 {fill:#FED7AD}
    .fil14 {fill:#FDD6BF}
    .fil71 {fill:#FFD060}
    .fil38 {fill:#FDD2B3}
    .fil3 {fill:#F9CCDF}
    .fil76 {fill:#FDC058}
    .fil26 {fill:#FBC09C}
    .fil5 {fill:#F8C2D9}
    .fil10 {fill:#FCB95D}
    .fil42 {fill:#F7BED7}
    .fil40 {fill:#FBB04A}
    .fil78 {fill:#FAAC56}
    .fil15 {fill:#FAAC52}
    .fil6 {fill:#FAAB58}
    .fil55 {fill:#F9A553}
    .fil65 {fill:#F9A24F}
    .fil52 {fill:#F8A04F}
    .fil46 {fill:#F8A04C}
    .fil74 {fill:#F89E4D}
    .fil73 {fill:#F89C4F}
    .fil66 {fill:#F89C4B}
    .fil53 {fill:#F89B48}
    .fil28 {fill:#F7994B}
    .fil47 {fill:#F79546}
    .fil50 {fill:#F79543}
    .fil77 {fill:#F79349}
    .fil18 {fill:#F4909E}
    .fil61 {fill:#F48C9A}
    .fil56 {fill:#F38998}
    .fil48 {fill:#F38997}
    .fil80 {fill:#F38996}
    .fil16 {fill:#F38595}
    .fil33 {fill:#F38391}
    .fil20 {fill:#F05E6E}
    .fil13 {fill:#FBFBE8}
    .fil25 {fill:#F39648}
    .fil54 {fill:#F38F40}
    .fil64 {fill:#F6D8BF}
    .fil39 {fill:#E4A8CB}
    .fil41 {fill:#E3B1D1}
    .fil35 {fill:#E3AFD0}
    .fil21 {fill:#E3B8BF}
    .fil1 {fill:#D9A3CA}
    .fil23 {fill:#DACEC7}
    .fil57 {fill:#B65660}
    .fil79 {fill:#B6545F}
    .fil49 {fill:#B55963}
    .fil37 {fill:#C28CAC}
    .fil34 {fill:#C091AF}
    .fil60 {fill:#AEA8C6}
    .fil62 {fill:#A69FBE}
    .fil67 {fill:#A49AB9}
    .fil29 {fill:#7C4A5C}
    .fil69 {fill:#9B92B2}
    .fil30 {fill:#6D3A58}
    .fil19 {fill:#7D5881}
    .fil2 {fill:#7F5884}
    .fil7 {fill:#7F5482}
    .fil31 {fill:#6F3A65}
    .fil8 {fill:#724C70}
    .fil63 {fill:#785581}
    .fil68 {fill:#77517D}
    .fil32 {fill:#65345C}
    .fil51 {fill:#75507B}
    .fil72 {fill:#5E3457}
    .fil22 {fill:#6E4B73}
    .fil11 {fill:#713F70}
    .fil70 {fill:#714E79}
    .fil24 {fill:#6F4B75}
    .fil12 {fill:#663966}
    .fil0 {fill:#A6D5DE}
   ]]>
  </style>
   <clipPath id="id0">
    <path d="M500 28c269,0 488,212 488,472 0,260 -219,472 -488,472 -269,0 -488,-212 -488,-472 0,-260 219,-472 488,-472z"/>
   </clipPath>
 </defs>
 <g id="Layer_x0020_1">
  <metadata id="CorelCorpID_0Corel-Layer"/>
  <g>
  </g>
  <g style="clip-path:url(#id0)">
   <g>
    <g id="_2821132196128">
     <rect class="fil0 str0" x="-284" y="-216" width="1568" height="1433"/>
     <g>
      <path class="fil1" d="M745 329c18,-10 38,-16 59,-18 10,-1 20,0 31,1 7,1 28,4 27,15 0,9 -19,15 -26,17 -13,5 -28,5 -42,4 -14,-2 -29,-4 -43,-7l-6 -12z"/>
      <path class="fil2" d="M843 327c0,0 -5,1 -14,2 -8,1 -19,3 -31,4 -12,1 -24,2 -32,2 -8,0 -13,0 -13,0 0,1 1,1 3,1 3,0 6,0 10,0 8,0 20,0 32,-1 13,-1 24,-3 32,-5 4,0 7,-1 9,-2 2,0 4,-1 4,-1z"/>
      <path class="fil2" d="M726 318c16,-23 38,-42 63,-56 12,-7 25,-13 39,-17 9,-2 38,-11 43,3 4,12 -15,30 -23,37 -14,13 -32,21 -50,28 -19,7 -39,12 -58,16l-14 -11z"/>
      <path class="fil1" d="M846 260c0,-1 -6,3 -15,9 -9,7 -22,15 -37,24 -15,8 -29,15 -39,20 -10,5 -16,8 -16,9 0,0 2,-1 4,-2 3,-1 8,-3 13,-5 10,-5 24,-12 39,-20 15,-9 28,-17 37,-24 5,-3 8,-6 11,-8 2,-2 3,-3 3,-3z"/>
      <path class="fil3" d="M659 311c-13,-33 -24,-71 -14,-105 5,-19 16,-34 29,-47 13,-14 40,-30 60,-21 18,8 34,35 38,53 13,55 -27,108 -74,130l-39 -10z"/>
      <path class="fil4" d="M734 138c0,0 0,0 0,0 0,0 0,0 0,0z"/>
      <path class="fil5" d="M721 307c-6,-2 -12,-5 -19,-8 4,-3 7,-7 10,-11 7,-8 13,-17 17,-27 7,-18 6,-39 1,-59 -5,-19 -14,-37 -23,-56 -1,-2 -2,-4 -3,-7 6,-2 12,-3 17,-3 5,0 9,1 13,2 0,0 0,0 0,0l0 0c18,8 34,35 38,53 2,7 3,14 3,21 0,38 -23,73 -54,95z"/>
      <path class="fil1" d="M771 187c-7,4 -13,8 -19,11 -10,6 -19,11 -30,17 -5,3 -8,5 -10,6 4,-17 6,-32 8,-44 1,-7 2,-13 2,-17 0,-4 0,-6 0,-6 0,0 -1,2 -1,6 -1,6 -2,11 -3,17 -2,12 -5,27 -9,44 -3,-5 -12,-18 -24,-33 -7,-9 -13,-16 -18,-22 0,1 0,1 -1,2 4,6 10,13 17,22 12,15 23,28 26,31 -1,4 -2,8 -3,12 -5,20 -11,38 -15,52 -1,-1 -4,-5 -8,-12 -5,-7 -12,-16 -19,-27 -8,-11 -14,-22 -18,-29 -1,-1 -2,-3 -3,-4 0,1 0,2 0,3 0,1 1,1 1,2 4,8 10,18 17,29 8,11 15,21 20,27 6,7 9,11 10,11 -1,1 -1,2 -1,3 -2,5 -4,11 -6,16 -1,4 -2,6 -2,6 0,0 1,-2 3,-5 2,-4 4,-10 6,-17 1,0 1,-2 2,-3 1,0 6,0 14,-2 9,-2 21,-5 35,-10 5,-1 11,-3 16,-5 1,-2 1,-3 2,-4 -6,2 -12,4 -19,7 -13,4 -26,8 -35,10 -7,2 -12,3 -13,4 5,-13 11,-31 16,-51 1,-4 2,-8 2,-12 3,0 7,-2 12,-5 8,-4 19,-9 30,-16 7,-4 13,-8 19,-11 -1,-1 -1,-2 -1,-3z"/>
      <path class="fil6" d="M823 178c-7,4 -13,10 -18,16 2,-7 4,-13 5,-19 7,-12 9,-28 5,-41 -1,-4 -2,-7 -5,-9 -7,6 -10,16 -10,26 0,9 3,17 5,25 -2,9 -5,18 -8,26 1,-12 -2,-25 -9,-35 -3,-3 -5,-6 -9,-7 -4,8 -3,19 0,28 3,9 9,16 14,24 -4,11 -10,22 -16,32 5,-13 4,-29 -3,-42 -1,-3 -4,-6 -7,-8 -5,8 -6,19 -4,28 2,10 7,18 12,27 -7,11 -14,21 -22,31 7,-14 7,-30 2,-44 -2,-4 -4,-7 -7,-9 -6,7 -8,18 -7,28 2,9 5,18 9,27 -7,8 -14,16 -22,23 5,-12 6,-27 0,-40 -1,-3 -3,-7 -6,-9 -6,7 -8,18 -7,28 1,9 5,17 8,25 -4,4 -8,8 -13,11 -2,2 1,5 3,4 9,-7 17,-14 25,-22 14,8 31,8 45,2 4,-2 7,-4 9,-7 -7,-6 -18,-7 -28,-6 -8,1 -16,5 -23,8 8,-8 16,-17 23,-26l0 0c14,7 31,8 45,1 4,-1 7,-3 9,-6 -8,-6 -18,-8 -28,-6 -8,1 -16,4 -24,8 7,-10 14,-21 20,-32 15,4 31,1 44,-9 3,-2 5,-4 7,-8 -9,-4 -20,-3 -29,0 -7,3 -14,8 -20,13 6,-11 11,-23 15,-36 16,2 32,-4 42,-15 3,-2 5,-5 6,-9 -9,-3 -20,-1 -28,4z"/>
      <path class="fil3" d="M771 129c8,0 8,-11 0,-11 -7,0 -7,11 0,11z"/>
      <path class="fil3" d="M868 207c4,0 4,-6 0,-6 -4,0 -4,6 0,6z"/>
      <path class="fil3" d="M873 120c7,0 7,-11 0,-11 -8,0 -8,11 0,11z"/>
      <path class="fil3" d="M883 309c8,0 8,-11 0,-11 -7,0 -7,11 0,11z"/>
      <path class="fil3" d="M938 216c8,0 8,-11 0,-11 -7,0 -7,11 0,11z"/>
      <path class="fil3" d="M674 126c4,0 4,-7 0,-7 -5,0 -5,7 0,7z"/>
      <path class="fil3" d="M764 72c4,0 4,-7 0,-7 -5,0 -5,7 0,7z"/>
      <path class="fil1" d="M288 711c-22,3 -44,0 -65,-7 -10,-4 -20,-8 -29,-14 -7,-4 -26,-16 -21,-26 5,-9 25,-7 33,-6 15,1 29,8 42,15 13,7 27,15 39,25l1 13z"/>
      <path class="fil2" d="M192 672c0,0 5,1 14,4 8,2 20,5 32,9 13,5 24,9 32,12 8,3 13,5 13,5 0,0 -1,-1 -3,-2 -2,-1 -6,-2 -10,-4 -7,-4 -19,-8 -31,-13 -13,-4 -24,-7 -33,-9 -4,-1 -8,-1 -10,-2 -2,0 -4,0 -4,0z"/>
      <path class="fil2" d="M302 730c-26,16 -55,25 -85,28 -15,2 -30,2 -45,0 -11,-2 -42,-5 -41,-21 1,-14 27,-23 38,-27 19,-6 41,-6 61,-5 21,1 42,4 63,9l9 16z"/>
      <path class="fil1" d="M160 736c0,0 7,-1 19,-3 12,-2 28,-5 46,-7 18,-2 35,-3 46,-3 12,-1 20,-1 20,-1 0,-1 -2,-1 -5,-1 -4,0 -9,0 -15,0 -12,0 -28,1 -46,3 -18,2 -35,4 -47,7 -5,1 -10,2 -13,3 -4,1 -5,2 -5,2z"/>
      <path class="fil2" d="M363 766c0,38 -6,79 -31,108 -13,16 -29,26 -48,33 -19,8 -51,12 -67,-5 -14,-15 -18,-49 -14,-68 10,-59 72,-93 127,-94l33 26z"/>
      <path class="fil4" d="M217 902c0,0 0,0 0,0 0,0 0,0 0,0zm0 0c0,0 0,0 0,0 0,0 0,0 0,0zm0 0c0,0 0,0 0,0 0,0 0,0 0,0zm0 0c0,0 0,0 0,0 0,0 0,0 0,0zm0 0c0,0 0,0 0,0 0,0 0,0 0,0zm0 0c0,0 0,0 0,0 0,0 0,0 0,0zm0 0c0,0 0,0 0,0 -1,-1 -1,-1 -2,-2 1,1 1,1 2,2 0,0 0,0 0,0zm-16 -53c0,-6 1,-11 2,-15 -1,4 -2,9 -2,15zm2 -18c9,-42 45,-71 85,-84l0 0c-40,13 -76,42 -85,84z"/>
      <path class="fil7" d="M246 914c-11,-1 -22,-4 -29,-12 0,0 0,0 0,0 0,0 0,0 0,0 0,0 0,0 0,0 0,0 0,0 0,0 0,0 0,0 0,0 0,0 0,0 0,0 0,0 0,0 0,0 0,0 0,0 0,0 0,0 0,0 0,0 0,0 0,0 0,0 0,0 0,0 0,0 0,0 0,0 0,0 0,0 0,0 0,0 -1,-1 -1,-1 -2,-2 -9,-13 -14,-34 -14,-51 0,-6 1,-11 2,-15l0 0c0,-1 0,-2 0,-3 9,-42 45,-71 85,-84 4,7 9,13 13,19 -10,5 -19,11 -26,18 -15,15 -23,36 -27,58 -3,21 -2,42 -2,64 1,2 1,5 0,8z"/>
      <path class="fil8" d="M202 838c8,0 16,-1 23,-2 12,-1 24,-3 37,-4 5,0 10,-1 12,-1 -11,14 -20,28 -27,39 -4,7 -7,12 -9,16 -2,4 -3,6 -3,6 0,0 2,-2 4,-6 3,-5 7,-10 10,-15 7,-10 16,-24 27,-38 1,5 5,22 10,41 3,12 5,22 8,29 0,0 1,0 2,-1 -2,-7 -4,-17 -7,-28 -5,-21 -10,-38 -12,-42 3,-3 5,-7 8,-10 13,-18 27,-33 37,-44 0,1 1,6 2,15 2,9 5,21 7,35 3,13 4,26 6,35 0,2 0,3 0,5 1,-1 1,-2 2,-3 0,0 0,-1 0,-2 -1,-9 -2,-22 -5,-36 -2,-14 -5,-26 -8,-35 -2,-8 -4,-14 -4,-14 1,-1 1,-2 2,-2 4,-5 9,-10 13,-14 3,-3 4,-5 4,-5 0,0 -2,1 -5,4 -3,3 -8,8 -13,13 -1,1 -2,2 -3,3 -1,-1 -7,-3 -15,-4 -9,-2 -23,-4 -38,-6 -6,0 -12,-1 -18,-1 -1,1 -2,2 -4,3 7,0 14,0 22,1 15,2 28,3 38,5 8,1 13,2 15,2 -11,11 -24,26 -38,43 -2,3 -5,7 -7,10 -3,0 -7,0 -13,0 -10,0 -23,1 -37,3 -8,1 -16,2 -23,3 0,1 0,2 0,2z"/>
      <path class="fil6" d="M148 825c8,-1 16,-4 24,-7 -5,5 -9,10 -13,16 -12,9 -21,23 -23,37 0,4 0,8 2,12 9,-4 17,-12 20,-22 4,-8 5,-17 6,-27 6,-7 12,-14 19,-21 -7,11 -9,25 -6,38 1,4 2,8 5,10 8,-6 12,-17 13,-27 0,-10 -2,-19 -4,-29 9,-9 19,-17 29,-25 -10,11 -16,27 -15,42 0,4 1,8 4,11 9,-5 14,-15 16,-25 2,-10 1,-21 0,-31 11,-8 22,-14 34,-20 -12,10 -20,25 -20,41 -1,4 0,8 2,11 9,-4 16,-13 19,-23 3,-10 3,-21 3,-31 10,-5 20,-9 31,-13 -10,10 -17,25 -17,39 -1,4 0,8 2,11 9,-4 16,-13 19,-23 2,-10 3,-19 3,-29 5,-2 11,-3 17,-5 3,0 2,-5 -1,-4 -12,2 -23,6 -34,10 -10,-13 -26,-21 -43,-21 -4,0 -8,0 -11,2 4,10 14,16 24,18 8,3 17,3 26,3 -12,4 -23,10 -33,16l-1 -1c-10,-13 -26,-21 -43,-21 -4,0 -8,1 -11,3 4,9 14,15 24,18 9,2 18,2 28,2 -12,7 -23,14 -33,22 -13,-10 -31,-14 -47,-10 -4,1 -8,3 -10,5 6,8 17,12 28,12 8,1 16,-1 24,-3 -10,8 -20,18 -30,28 -14,-8 -32,-10 -47,-4 -4,2 -7,4 -9,7 7,7 18,9 29,8z"/>
      <path class="fil3" d="M177 894c-7,-3 -12,8 -5,11 7,4 12,-7 5,-11z"/>
      <path class="fil3" d="M116 777c-4,-2 -7,5 -3,7 5,2 8,-5 3,-7z"/>
      <path class="fil3" d="M74 860c-7,-3 -11,8 -4,11 7,3 12,-8 4,-11z"/>
      <path class="fil3" d="M145 672c-7,-3 -12,7 -5,11 7,3 12,-8 5,-11z"/>
      <path class="fil3" d="M52 739c-8,-3 -12,8 -5,11 7,3 12,-8 5,-11z"/>
      <path class="fil3" d="M270 940c-4,-2 -7,4 -2,6 4,2 7,-4 2,-6z"/>
      <path class="fil3" d="M160 954c-5,-2 -8,5 -3,6 4,2 7,-4 3,-6z"/>
      <path class="fil9" d="M946 504c-5,-42 -31,-84 -58,-115 -32,-36 -78,-51 -122,-68 -27,-10 -53,-13 -78,-31 -31,-22 -52,-56 -70,-90 -18,-35 -49,-58 -85,-76 -58,-28 -127,-38 -191,-31 -148,15 -276,152 -289,299 -5,53 2,109 26,157 11,24 25,43 47,58 26,18 54,35 80,53 54,39 86,92 121,148 20,31 45,60 73,84 31,26 56,41 96,48 82,14 168,3 247,-23 61,-20 111,-68 146,-120 30,-42 47,-96 54,-147 7,-49 8,-98 3,-146z"/>
      <path class="fil10" d="M302 768l89 -48 0 -192 -271 0 0 74 0 0c1,1 2,2 3,2 1,1 2,2 3,3 26,18 54,35 80,53 41,30 70,68 96,108z"/>
      <path class="fil11" d="M371 544c7,0 14,0 20,-3 6,-2 11,-8 11,-14 1,-11 -11,-19 -10,-30 0,-1 0,-3 1,-4 2,-2 5,-2 8,-3 9,-2 18,-9 22,-18 4,-9 5,-19 4,-29 -3,-21 -14,-40 -30,-53 -7,-6 -14,-10 -19,-16 -20,-25 -1,-69 4,-95 7,-32 6,-71 -23,-91 -22,-16 -49,-24 -76,-25 -19,-1 -36,-4 -54,0 -28,7 -48,25 -58,52 -11,27 -13,58 -17,87 -3,19 -7,41 -23,53 -7,5 -15,8 -23,11 -19,7 -37,16 -51,29 -14,14 -24,28 -20,50 2,10 8,20 6,30 -1,7 -5,13 -8,20 -3,6 -4,13 -4,20 0,16 6,31 18,42 16,16 41,21 63,16l259 -29z"/>
      <path class="fil12" d="M144 413c9,-12 21,-22 30,-34 10,-15 15,-34 15,-53 2,1 4,1 6,1 1,0 1,0 2,0 0,0 0,1 0,2 3,11 14,23 23,30 9,7 19,12 29,16 0,5 0,11 0,16 -1,1 -1,1 -1,2l-15 -1c0,4 -3,7 -7,7 0,0 -1,0 -1,0 -4,0 -8,-1 -12,-3 -14,2 -46,6 -69,17z"/>
      <path class="fil12" d="M369 440l-20 -23c-16,-14 -36,-22 -57,-23l-33 -1c1,-5 2,-9 3,-14 6,1 13,2 19,3 2,0 4,0 5,0 17,0 36,-5 47,-17 14,-16 20,-45 23,-65 4,-20 12,-44 10,-65 1,-1 2,-2 2,-4 0,-2 -2,-4 -3,-6 0,0 0,-1 -1,-1l2 -2c8,17 7,36 4,53 -3,18 -9,35 -12,53 -2,18 -1,37 8,52 3,6 8,11 13,16l-10 44z"/>
      <path class="fil10" d="M349 417c-16,-14 -36,-22 -57,-23l-59 -2c0,4 -4,8 -8,7 -4,0 -8,-1 -12,-3 -21,2 -77,10 -92,35 -18,30 -19,157 3,192 21,35 360,-49 360,-49l-135 -157z"/>
      <path class="fil13" d="M289 394l-50 -2c-1,2 -3,3 -6,3 -5,0 -9,0 -14,0l2 1c0,0 -10,0 -22,2l77 170c13,-7 25,-14 38,-21l-25 -153z"/>
      <path class="fil11" d="M386 602c1,0 -6,-14 -12,-31 -7,-18 -11,-33 -12,-32 0,0 0,3 2,9 1,6 4,15 7,23 4,9 7,17 10,23 3,5 5,8 5,8z"/>
      <path class="fil14" d="M225 392c-2,0 -4,0 -6,1 -1,0 -1,0 -2,0l4 3c0,0 -5,0 -12,1l0 5c0,20 16,37 36,37l0 0c20,0 37,-17 37,-37l0 -8 -57 -2z"/>
      <path class="fil15" d="M202 545c-1,-25 -4,-50 -9,-74 -1,-2 -2,-4 -3,-5 -3,-9 -7,-18 -11,-27 -2,-3 -3,-6 -4,-8l0 -1c18,15 29,34 36,56 6,18 8,37 8,56 -5,1 -11,2 -17,3z"/>
      <path class="fil16" d="M245 429l0 0c-15,0 -28,-13 -28,-29l0 -71 56 0 0 71c0,16 -12,29 -28,29z"/>
      <path class="fil17" d="M888 389c-32,-36 -78,-51 -122,-68 -27,-10 -53,-13 -78,-31 -27,8 -54,20 -79,37 -44,29 -76,70 -106,113 -2,2 -3,5 -5,7 -7,11 -14,21 -21,31 -20,29 -40,57 -62,83 -34,39 -74,74 -122,94 -19,9 -43,18 -67,22 43,36 71,83 101,131 20,31 45,60 73,84 31,26 56,41 96,48 82,14 168,3 247,-23 61,-20 111,-68 146,-120 30,-42 47,-96 54,-147 7,-49 8,-98 3,-146 -5,-42 -31,-84 -58,-115z"/>
      <path class="fil18" d="M346 198c-13,-9 -32,-15 -47,-17 -18,-3 -38,-1 -56,7 -26,12 -36,40 -42,67 -1,3 -3,5 -6,4 -6,-2 -13,-1 -19,2 -8,4 -13,13 -15,21 -1,9 1,19 5,26 6,12 18,20 31,19 0,0 0,1 0,2 3,11 14,23 23,30 18,13 39,22 61,23 18,1 40,-3 52,-17 14,-16 20,-45 23,-65 6,-33 24,-79 -10,-102z"/>
      <polygon class="fil6" points="393,365 378,334 393,330 "/>
      <polygon class="fil6" points="424,358 422,324 438,326 "/>
      <polygon class="fil6" points="484,383 506,357 516,369 "/>
      <polygon class="fil6" points="465,367 469,333 484,338 "/>
      <path class="fil11" d="M350 541c0,0 1,-1 2,-5 1,-3 1,-8 0,-13 -1,-6 -3,-13 -5,-20 -2,-7 -5,-15 -9,-23 -3,-8 -7,-15 -10,-22 -3,-7 -6,-13 -7,-18 -4,-11 -4,-18 -4,-18 -1,0 -1,1 0,5 0,3 0,7 2,13 1,6 4,12 7,19 3,7 7,14 10,22 4,8 7,16 9,23 2,7 4,14 5,19 2,6 2,10 1,13 0,3 -1,5 -1,5z"/>
      <path class="fil19" d="M477 113c0,-38 -30,-68 -67,-68 -37,0 -68,30 -68,68 0,33 25,61 56,66 3,5 6,11 8,16 2,3 5,3 6,0l7 -16c33,-4 58,-32 58,-66z"/>
      <path class="fil20" d="M468 57c0,-10 -9,-18 -19,-18 -10,0 -18,8 -18,18 0,10 8,19 18,19 10,0 19,-9 19,-19z"/>
      <path class="fil13" d="M443 61c0,1 0,2 0,2 0,1 0,1 0,1 0,1 0,1 1,1 0,0 1,0 2,0 0,-1 1,-1 1,-2 0,-1 0,-2 0,-3 0,-1 0,-2 0,-4 0,0 0,0 0,-1 -1,0 -1,0 -1,0 0,0 0,0 -1,0 0,0 0,0 0,0 0,0 0,-1 0,-1 0,0 0,0 0,0 1,0 1,0 1,0 1,-1 1,-1 1,-2 0,-1 0,-2 0,-3 0,0 0,-1 0,-1 0,0 0,-1 0,-1 0,0 -1,0 -1,0 -1,0 -2,0 -2,0 -1,1 -1,1 -1,2 0,0 0,0 0,0 0,0 0,0 0,0 -1,0 -1,0 -1,0 0,0 0,0 0,-1 0,0 1,-1 2,-2 0,0 0,0 1,0 0,0 0,0 1,0 1,0 1,0 2,2 0,0 0,1 0,2 0,1 0,2 0,3 0,0 -1,1 -1,1 0,0 0,0 0,0l0 1c1,0 1,1 1,1 0,1 0,1 0,1 0,1 0,1 0,1 0,1 0,2 0,3 0,1 0,1 0,2 0,1 -1,2 -2,2 0,0 0,1 0,1 0,0 -1,0 -1,0 -1,0 -1,0 -2,0 0,-1 0,-1 -1,-1 0,-1 0,-1 0,-2 0,0 0,-1 0,-1 0,-1 0,-1 1,-1l0 0z"/>
      <path class="fil13" d="M451 65c0,0 0,0 1,0 0,0 1,0 1,0 1,0 1,0 2,0 0,-1 0,-1 1,-1 0,0 0,1 0,1 0,0 0,0 0,0 0,0 -1,0 -1,0 -1,1 -1,1 -2,1 -1,0 -2,0 -3,0 0,0 0,0 0,0 0,0 0,0 0,-1 0,0 0,0 0,0 0,-1 0,-1 1,-2 0,0 0,0 0,-1 0,0 1,-1 1,-2 0,-1 1,-2 1,-4 0,0 1,-1 1,-2 0,0 0,-1 0,-1 0,-1 1,-2 1,-2 0,-1 0,-2 0,-3 1,0 0,-1 0,-2 0,0 -1,0 -1,0 -1,0 -2,1 -2,2 -1,1 -1,1 -1,2 0,0 0,0 0,0 0,0 0,0 0,0 0,0 0,-1 0,-1 0,0 0,-1 0,-2 0,0 0,0 0,-1 1,0 2,-1 2,-1 2,0 3,0 3,2 0,0 0,1 0,1 0,1 0,2 0,3 -1,1 -1,3 -2,5 0,1 -1,2 -1,3 0,1 0,1 -1,2 0,0 0,1 0,1l-1 2c0,0 0,0 0,1l0 0z"/>
      <path class="fil13" d="M442 142l-65 0c-6,0 -11,-5 -11,-11l0 -36c0,-6 5,-11 11,-11l65 0c6,0 11,5 11,11l0 36c0,6 -5,11 -11,11z"/>
      <path class="fil19" d="M450 87l-40 25 -40 -26c0,0 -1,1 -1,1l40 27 42 -26 -1 0c0,-1 0,-1 0,-1z"/>
      <path class="fil21" d="M409 197c-1,0 -2,-1 -3,-2 -2,-5 -5,-11 -8,-16 -31,-5 -56,-33 -56,-66 0,-4 1,-7 1,-11 0,4 -1,7 -1,11 0,33 25,61 56,66 3,5 6,11 8,16 1,1 2,2 3,2l0 0zm3 -2l0 0 7 -16c0,0 0,0 0,0 0,0 0,0 0,0l-7 16zm7 -16c0,0 0,0 0,0 0,0 0,0 0,0zm0 0c0,0 0,0 0,0 0,0 0,0 0,0zm1 0c0,0 0,0 0,0 0,0 0,0 0,0zm0 0c0,0 0,0 0,0 0,0 0,0 0,0zm0 0c0,0 0,0 0,0 0,0 0,0 0,0zm0 0c0,0 0,0 0,0 0,0 0,0 0,0zm0 0c0,0 0,0 0,0 0,0 0,0 0,0zm0 0c0,0 0,0 0,0 0,0 0,0 0,0zm0 0c0,0 0,0 0,0 0,0 0,0 0,0zm0 0c0,0 0,0 0,0 0,0 0,0 0,0zm0 0c0,0 0,0 0,0 0,0 0,0 0,0zm0 0c0,0 0,0 0,0 0,0 0,0 0,0zm0 0c0,0 0,0 0,0 0,0 0,0 0,0zm1 0c0,0 0,0 0,0 0,0 0,0 0,0zm0 0c0,0 0,0 0,0 0,0 0,0 0,0zm-78 -77c0,0 0,0 0,0 0,0 0,0 0,0zm0 0c0,0 0,0 0,0 0,0 0,0 0,0zm0 0c0,0 0,0 0,0 0,0 0,0 0,0z"/>
      <path class="fil22" d="M409 197c-1,0 -2,-1 -3,-2 -2,-5 -5,-11 -8,-16 -31,-5 -56,-33 -56,-66 0,-4 1,-7 1,-11 0,0 0,0 0,0 0,0 0,0 0,0 0,0 0,0 0,0 0,0 0,0 0,0 0,0 0,0 0,0 0,0 0,0 0,0 4,-21 17,-39 34,-48 -1,7 -3,15 -3,23 0,2 0,5 0,7 -5,1 -8,6 -8,11l0 36c0,6 5,11 11,11l65 0c6,0 11,-5 11,-11l0 0c7,-1 15,-1 22,-1 -7,25 -28,45 -54,49 0,0 0,0 0,0 0,0 0,0 0,0 0,0 0,0 0,0 0,0 0,0 -1,0 0,0 0,0 0,0 0,0 0,0 0,0 0,0 0,0 0,0 0,0 0,0 0,0 0,0 0,0 0,0 0,0 0,0 0,0 0,0 0,0 0,0 0,0 0,0 0,0 0,0 0,0 0,0 0,0 0,0 0,0 0,0 0,0 0,0 0,0 0,0 0,0 0,0 0,0 0,0 0,0 0,0 0,0 0,0 0,0 0,0 0,0 0,0 0,0 0,0 0,0 0,0 0,0 0,0 0,0 0,0 0,0 0,0 0,0 0,0 0,0 0,0 0,0 0,0 0,0 -1,0 -1,0 0,0 0,0 0,0 0,0 0,0 0,0 0,0 0,0 0,0 0,0 0,0 0,0 0,0 0,0 0,0l-7 16c0,1 -1,2 -3,2z"/>
      <path class="fil23" d="M442 142l-65 0c-6,0 -11,-5 -11,-11l0 -36c0,-5 3,-10 8,-11 0,2 0,3 1,5l-5 -3c0,0 -1,1 -1,1l6 4c1,10 4,19 11,26 11,12 28,15 45,15 5,0 11,0 17,-1 2,0 3,0 5,0l0 0c0,6 -5,11 -11,11z"/>
      <path class="fil22" d="M375 91l-6 -4c0,0 1,-1 1,-1l5 3c0,0 0,1 0,2z"/>
      <path class="fil2" d="M545 200l-89 0c-15,0 -26,12 -26,26l0 44c0,15 11,27 26,27l16 0 -1 12c0,3 3,5 6,3l19 -15 49 0c14,0 26,-12 26,-27l0 -44c0,-14 -12,-26 -26,-26z"/>
      <path class="fil6" d="M478 251c0,6 -4,11 -10,11 -6,0 -10,-5 -10,-11 0,-5 4,-10 10,-10 6,0 10,5 10,10z"/>
      <path class="fil6" d="M511 251c0,6 -5,11 -11,11 -5,0 -10,-5 -10,-11 0,-5 5,-10 10,-10 6,0 11,5 11,10z"/>
      <path class="fil6" d="M543 251c0,6 -5,11 -10,11 -6,0 -11,-5 -11,-11 0,-5 5,-10 11,-10 5,0 10,5 10,10z"/>
      <path class="fil21" d="M471 310c0,0 0,-1 0,-1l1 -12 -1 12c0,0 0,1 0,1zm-41 -84c0,0 0,0 0,0 0,0 0,0 0,0zm0 0l0 0zm0 0c0,0 0,0 0,0 0,0 0,0 0,0zm0 0l0 0zm0 0c0,0 0,0 0,0 0,0 0,0 0,0zm0 0c0,0 0,0 0,0 0,0 0,0 0,0zm0 0c0,0 0,0 0,0 0,0 0,0 0,0z"/>
      <path class="fil24" d="M475 313c-2,0 -4,-1 -4,-3 0,0 0,-1 0,-1l1 -12 -16 0c-14,0 -26,-11 -26,-25 0,-1 0,-1 0,-2l0 -44c0,0 0,0 0,0 0,0 0,0 0,0 0,0 0,0 0,0l0 0c0,0 0,0 0,0 0,0 0,0 0,0 0,0 0,0 0,0l0 0c0,0 0,0 0,0 0,0 0,0 0,0 0,0 0,0 0,0 0,0 0,0 0,0 0,0 0,0 0,0 0,0 0,0 0,0 0,-11 7,-20 16,-24 -1,10 -1,21 5,30 3,4 7,8 11,11 -2,2 -4,5 -4,8 0,6 4,11 10,11 6,0 10,-5 10,-11 0,0 0,-1 0,-2 1,0 2,1 3,1 3,0 6,1 9,1 0,0 0,0 0,0 0,6 5,11 10,11 6,0 11,-5 11,-11 0,0 0,0 0,0 1,0 3,0 5,0 0,0 1,0 1,0 2,0 4,0 5,0 0,0 0,0 0,0 0,6 5,11 11,11 5,0 9,-4 10,-9 4,0 8,1 12,1 6,1 11,3 16,4l0 12c0,1 0,1 0,2 0,14 -12,25 -26,25l-49 0 -19 15c-1,1 -2,1 -2,1z"/>
      <path class="fil25" d="M468 262c-6,0 -10,-5 -10,-11 0,-3 2,-6 4,-8 5,3 11,5 16,6 0,1 0,2 0,2 0,6 -4,11 -10,11z"/>
      <path class="fil25" d="M500 262c-5,0 -10,-5 -10,-11 0,0 0,0 0,0 4,0 8,0 12,0 2,0 4,0 7,0 0,0 1,0 2,0 0,0 0,0 0,0 0,6 -5,11 -11,11z"/>
      <path class="fil25" d="M533 262c-6,0 -11,-5 -11,-11 0,0 0,0 0,0 7,0 14,1 21,2 -1,5 -5,9 -10,9z"/>
      <path class="fil6" d="M529 151l69 0c11,0 20,9 20,21l0 34c0,11 -9,21 -20,21l-12 0 0 9c0,3 -2,4 -4,2l-15 -11 -38 0c-11,0 -21,-10 -21,-21l0 -34c0,-12 10,-21 21,-21z"/>
      <path class="fil2" d="M581 191c0,5 3,8 8,8 4,0 8,-3 8,-8 0,-4 -4,-8 -8,-8 -5,0 -8,4 -8,8z"/>
      <path class="fil2" d="M555 191c0,5 4,8 8,8 5,0 8,-3 8,-8 0,-4 -3,-8 -8,-8 -4,0 -8,4 -8,8z"/>
      <path class="fil2" d="M530 191c0,5 4,8 8,8 5,0 8,-3 8,-8 0,-4 -3,-8 -8,-8 -4,0 -8,4 -8,8z"/>
      <path class="fil26" d="M585 239c0,0 0,0 0,0 0,0 0,0 0,0zm0 0c0,0 0,-1 1,-1 -1,0 -1,1 -1,1zm1 -3l0 -9 0 9z"/>
      <path class="fil27" d="M618 201l0 0 0 -5c0,0 0,0 0,0l0 5z"/>
      <path class="fil26" d="M612 221c4,-4 6,-9 6,-15l0 -5 0 0 0 5c0,6 -2,11 -6,15z"/>
      <path class="fil26" d="M508 172c0,0 0,0 0,0 0,0 0,0 0,0zm0 0c0,0 0,0 0,0 0,0 0,0 0,0zm0 0c0,0 0,0 0,0 0,0 0,0 0,0zm0 0c0,0 0,0 0,0 0,0 0,0 0,0zm0 0c0,-1 0,-1 0,-1 0,0 0,0 0,1zm0 -1c0,0 0,0 0,0 0,0 0,0 0,0zm0 0c0,0 0,0 0,0 0,0 0,0 0,0zm0 0c0,0 0,0 0,0 0,0 0,0 0,0zm0 0c0,0 0,0 0,0 0,0 0,0 0,0zm0 0c0,0 0,0 0,0 0,0 0,0 0,0z"/>
      <path class="fil28" d="M583 239c0,0 -1,0 -1,-1l-15 -11 -38 0c-11,0 -20,-9 -21,-21 0,0 0,0 0,0l0 -34c0,0 0,0 0,0 0,0 0,0 0,0 0,0 0,0 0,0 0,0 0,0 0,0 0,0 0,0 0,0 0,0 0,0 0,0 0,0 0,0 0,0 0,0 0,0 0,0 0,-1 0,-1 0,-1 0,0 0,0 0,0 0,0 0,0 0,0 0,0 0,0 0,0 0,0 0,0 0,0 0,0 0,0 0,0 0,0 0,0 0,0 0,0 0,0 0,0 0,0 0,0 0,0 0,0 0,0 0,0 0,0 0,0 0,0 1,-8 5,-14 12,-18 0,7 2,12 6,18 3,5 7,9 11,12 -4,1 -7,4 -7,8 0,5 4,8 8,8 5,0 8,-3 8,-8 0,-1 0,-2 0,-2 3,1 6,2 10,3 0,4 3,7 7,7 4,0 6,-2 8,-5 1,0 2,0 3,0 3,0 5,0 7,0 1,3 4,5 8,5 3,0 6,-2 7,-5 0,0 1,0 1,0 1,0 2,0 2,0 7,0 13,1 19,2l0 5 0 5c0,6 -2,11 -6,15 -3,3 -8,6 -14,6l-12 0 0 9c0,1 0,1 0,2 -1,0 -1,1 -1,1 0,0 0,0 0,0 0,0 0,0 0,0 -1,0 -1,0 -2,0z"/>
      <path class="fil29" d="M589 199c-4,0 -7,-2 -8,-5 2,0 3,0 5,0 3,0 7,0 10,0 -1,3 -4,5 -7,5z"/>
      <path class="fil29" d="M563 199c-4,0 -7,-3 -7,-7 1,1 3,1 4,1 4,1 7,1 11,1 -2,3 -4,5 -8,5z"/>
      <path class="fil29" d="M538 199c-4,0 -8,-3 -8,-8 0,-4 3,-7 7,-8 3,2 6,4 9,6 0,0 0,1 0,2 0,5 -3,8 -8,8z"/>
      <path class="fil11" d="M329 460c0,-1 -2,-7 -2,-14 -1,-8 -1,-14 -2,-14 -1,0 -2,6 -1,14 1,8 4,14 5,14z"/>
      <path class="fil15" d="M349 545c1,-5 2,-11 2,-16 0,0 0,0 0,1 1,2 1,4 0,6 0,3 -1,5 -1,5 0,0 0,0 0,0 0,0 1,-1 2,-5 1,-1 1,-3 1,-5 1,2 3,3 5,3 -1,1 -1,1 -1,2 -1,4 -4,9 -8,9z"/>
      <path class="fil30" d="M350 541c0,0 0,0 0,0 0,0 1,-2 1,-5 1,-2 1,-4 0,-6 1,0 1,1 2,1 0,2 0,4 -1,5 -1,4 -2,5 -2,5z"/>
      <path class="fil15" d="M351 518c-1,-5 -2,-10 -4,-15 -2,-7 -5,-15 -9,-23 -3,-7 -6,-14 -9,-20 0,-1 -2,-7 -2,-14 -1,-1 -1,-2 -1,-2 1,1 3,3 4,4 6,8 12,15 18,23 4,6 7,13 9,20l-6 27zm-26 -66c-2,-5 -3,-9 -4,-12 -3,-7 -3,-13 -4,-16l1 -1c0,6 3,11 6,17 0,2 0,4 0,6 0,2 1,4 1,6z"/>
      <path class="fil30" d="M350 520c-1,-14 -7,-27 -12,-39 -2,-6 -5,-12 -8,-18 -2,-3 -4,-7 -6,-11 -4,-9 -7,-18 -7,-27l0 -1c1,3 1,9 4,16 1,3 2,7 4,12 1,5 3,8 4,8 0,0 0,0 0,0 0,0 0,0 0,0 3,6 6,13 9,20 4,8 7,16 9,23 2,5 3,10 4,15l-1 2z"/>
      <path class="fil30" d="M329 460c-1,0 -3,-3 -4,-8 0,-2 -1,-4 -1,-6 0,-2 0,-4 0,-6 1,1 1,2 2,4 0,0 0,1 1,2 0,7 2,13 2,14 0,0 0,0 0,0 0,0 0,0 0,0z"/>
      <path class="fil31" d="M196 259c0,0 -1,0 -1,0 -2,-1 -5,-1 -7,-1 -1,0 -1,0 -2,0 0,0 0,0 0,0l23 -30c-3,9 -6,18 -8,27 0,3 -2,4 -5,4zm41 -67l5 -7c7,-6 16,-10 25,-11 2,-1 5,-1 8,-1 6,0 13,1 18,5 2,1 3,2 4,3 -5,-1 -9,-2 -14,-2 -14,0 -27,3 -40,9 -2,1 -4,2 -6,4z"/>
      <path class="fil32" d="M366 235c0,-3 0,-6 -1,-10 1,2 3,4 3,6 0,2 -1,3 -2,4z"/>
      <path class="fil33" d="M213 264c-5,0 -11,-1 -16,-2 -4,0 -8,-1 -11,-4 1,0 1,0 2,0 2,0 5,0 7,1 0,0 1,0 1,0 3,0 5,-1 5,-4 2,-9 5,-18 8,-27l28 -36c2,-2 4,-3 6,-4 13,-6 26,-9 40,-9 5,0 9,1 14,2 5,4 9,9 14,13 15,13 37,17 52,30 1,0 1,1 2,1 1,4 1,7 1,10 -1,1 -2,2 -3,3 -5,3 -11,4 -17,4 -3,0 -7,0 -11,-1 -16,-2 -33,-7 -46,-17 -5,-3 -10,-9 -10,-15 -2,7 -3,14 -7,20 -3,4 -7,8 -11,11 -5,4 -9,8 -14,12 -7,5 -15,8 -24,10 -3,1 -7,2 -10,2z"/>
      <path class="fil11" d="M193 262c11,2 23,-3 33,-10 25,-14 45,-38 51,-66 4,18 18,33 35,41 16,8 35,11 54,12 2,0 4,0 5,-2 2,-1 3,-3 3,-5 1,-12 -3,-24 -11,-32 -4,-5 -10,-9 -15,-13 -14,-8 -29,-13 -44,-15 -10,-1 -21,0 -31,2 -13,1 -26,3 -39,8 -13,5 -24,12 -33,22 -12,16 -17,36 -21,55l13 3z"/>
      <path class="fil33" d="M193 319c-7,-1 -13,-6 -17,-12 -4,-6 -5,-13 -5,-20 0,-5 1,-10 4,-14 2,-3 5,-5 9,-5 1,0 2,0 3,1 3,1 5,4 7,6 3,4 5,8 6,12 1,3 1,7 0,10 -1,7 -2,14 -5,20l-2 2z"/>
      <path class="fil15" d="M205 654c-3,0 -5,0 -8,0l11 -26c34,-4 74,-11 113,-18 -7,5 -14,10 -22,15 -28,16 -61,29 -94,29z"/>
      <path class="fil15" d="M208 628l6 -15c10,-12 27,-15 43,-19 35,-8 71,-20 95,-47 3,-3 6,-7 10,-7 0,1 0,3 1,6 -6,23 -19,44 -37,60 -2,1 -3,2 -5,4 -39,7 -79,14 -113,18zm156 -85c-1,-1 -1,-3 -2,-3 1,0 1,0 1,0 1,0 1,0 2,0 -1,1 -1,2 -1,3z"/>
      <path class="fil30" d="M363 546c-1,-3 -1,-5 -1,-6 0,0 0,0 0,0 1,0 1,2 2,3 0,1 -1,2 -1,3z"/>
      <path class="fil34" d="M443 540l30 -132c1,-5 -3,-11 -8,-12l-54 -12c-1,-4 -4,-8 -12,-10 -17,-5 -18,11 -18,11l0 0c0,1 0,2 0,2l-31 135c-1,5 2,11 8,12l72 17c0,0 1,0 2,0l-1 0 7 1c5,1 9,-1 10,-6l4 -15 -9 9z"/>
      <path class="fil35" d="M438 545l-72 -16c-6,-2 -9,-7 -8,-13l31 -134c1,-6 6,-9 12,-8l72 16c5,2 9,7 8,13l-31 134c-1,6 -7,9 -12,8z"/>
      <path class="fil36" d="M439 413c-1,5 -5,9 -10,8 -4,-1 -6,-6 -5,-11 1,-5 5,-9 10,-8 4,1 6,6 5,11z"/>
      <path class="fil37" d="M440 545c0,0 0,0 0,0 0,0 0,0 0,0l0 0zm0 0c5,0 9,-3 10,-8 -1,5 -5,8 -10,8z"/>
      <path class="fil38" d="M450 537l0 0c0,0 0,0 0,0l1 -5 0 0 -1 5c0,0 0,0 0,0zm2 -6l4 -19c0,0 0,0 0,0l-4 19z"/>
      <path class="fil37" d="M450 537c0,0 0,0 0,0l0 0c0,0 0,0 0,0zm1 -5l1 -1 -1 1 0 0zm-93 -13c0,-1 0,-2 0,-3l31 -134 -31 134c0,1 0,2 0,3zm31 -137c0,0 0,0 0,0 0,0 0,0 0,0zm0 0c0,0 0,0 0,0 0,0 0,0 0,0zm0 0c0,0 0,0 0,0 0,0 0,0 0,0zm0 0c0,0 0,0 0,0 0,0 0,0 0,0zm0 0c0,0 0,0 0,0 0,0 0,0 0,0zm0 0c0,0 0,0 0,0 0,0 0,0 0,0zm0 0c0,0 0,0 0,0 0,0 0,0 0,0zm0 0l0 0z"/>
      <path class="fil39" d="M440 545c0,0 0,0 0,0 -1,0 -1,0 -2,0l0 0 -72 -16c-1,0 -1,-1 -2,-1 -4,-1 -6,-5 -6,-9 0,-1 0,-2 0,-3l31 -134c0,0 0,0 0,0 0,0 0,0 0,0 0,0 0,0 0,0 0,0 0,0 0,0 0,0 0,0 0,0 0,0 0,0 0,0 0,0 0,0 0,0 0,0 0,0 0,0 0,0 0,0 0,0 0,0 0,0 0,0 0,0 0,0 0,0 0,0 0,0 0,0 0,0 0,0 0,0 0,0 0,0 0,0l0 0c1,-5 4,-8 9,-8 1,4 1,9 1,14 1,20 2,39 2,58 1,15 2,32 12,43 9,11 24,14 37,20 2,1 4,2 6,3l-4 19 -1 1 -1 5c0,0 0,0 0,0 0,0 0,0 0,0 0,0 0,0 0,0 -1,5 -5,8 -10,8 0,0 0,0 0,0z"/>
      <path class="fil18" d="M283 532c19,-1 36,-15 51,-28 15,-13 32,-27 52,-28 1,0 2,0 2,1 0,1 0,1 0,2 -3,4 -8,6 -12,8 -10,4 -19,9 -27,16 13,-8 28,-13 44,-15 3,-1 15,-3 16,1 1,6 -24,11 -28,12 -10,3 -19,8 -27,14 15,-8 33,-12 50,-13 2,0 5,0 6,2 1,2 -2,4 -5,5 -18,7 -38,9 -54,20 13,-4 27,-7 41,-8 3,-1 6,-1 9,0 2,0 7,2 4,4 -7,4 -16,6 -23,9 -8,4 -15,8 -21,14 -6,6 -10,13 -17,19 -14,12 -35,13 -55,13l-6 -48z"/>
      <path class="fil10" d="M327 556c-5,-14 -13,-27 -20,-40 -36,6 -70,16 -104,29 -11,4 -26,13 -38,12 -14,-2 -23,-18 -38,-5 -10,8 -13,25 -13,37 0,24 9,55 34,62 18,6 37,3 55,-2 13,-4 25,-9 36,-15 11,-5 22,-8 33,-13 12,-6 23,-12 34,-19 8,-5 21,-11 29,-18 -2,-9 -5,-18 -8,-28z"/>
      <path class="fil40" d="M182 654c-17,-21 -40,-36 -66,-43 4,18 14,35 32,40 11,4 22,4 34,3z"/>
      <path class="fil11" d="M201 545c1,-1 2,-1 2,-1 0,-12 -1,-26 -3,-41 -3,-21 -8,-39 -14,-52 -3,-7 -5,-12 -8,-15 -2,-3 -3,-5 -3,-5 0,0 1,2 3,6 1,3 4,8 6,14 6,13 11,32 14,53 2,15 3,29 3,41z"/>
      <path class="fil11" d="M194 479c1,0 3,-9 2,-19 0,-11 -4,-19 -5,-19 0,1 2,9 3,19 1,10 -1,18 0,19z"/>
      <path class="fil11" d="M294 518c0,0 -2,1 -6,1 -3,1 -9,2 -15,4 -7,2 -15,4 -23,7 -9,2 -18,6 -28,9 -5,1 -10,3 -15,4 -4,1 -9,1 -14,2 -8,1 -16,3 -23,4 -7,2 -12,5 -15,6 -2,1 -3,2 -4,3 -1,0 -1,1 -1,1 0,0 7,-5 20,-8 7,-1 15,-3 24,-4 4,0 9,-1 14,-2 5,-1 10,-2 15,-4 10,-3 19,-6 27,-9 9,-3 16,-6 23,-7 5,-2 11,-3 16,-5 3,-1 5,-1 5,-2z"/>
      <path class="fil11" d="M338 578c-1,-1 -7,4 -16,11 -5,4 -11,8 -18,12 -7,5 -15,9 -23,14 -16,9 -32,16 -43,20 -5,3 -10,5 -13,6 -3,1 -5,2 -5,2 0,0 2,0 5,-1 3,-1 8,-3 14,-5 11,-4 27,-11 43,-20 9,-5 16,-9 23,-14 7,-4 13,-8 18,-12 2,-2 4,-4 6,-5 2,-2 3,-3 5,-5 2,-2 4,-3 4,-3z"/>
      <path class="fil41" d="M889 453c-23,-36 -75,-69 -119,-61 -33,5 -58,31 -78,57 -47,61 -83,133 -144,180 -22,16 -48,30 -76,30l390 174c10,-11 19,-23 27,-36 30,-42 47,-96 54,-147 5,-36 7,-72 6,-109 -1,0 -1,0 -2,0 -31,-17 -39,-58 -58,-88z"/>
      <path class="fil42" d="M743 917c61,-20 111,-68 146,-120 15,-21 26,-44 35,-69 -9,-2 -18,-2 -27,-2 -16,1 -32,5 -48,5 -59,3 -108,-39 -150,-79 -43,-41 -89,-84 -148,-87 -34,-2 -67,10 -96,29 -28,18 -53,42 -78,65 -29,27 -61,59 -96,78 1,2 3,4 4,6 0,1 1,1 1,1 2,3 4,6 6,8l0 1c4,6 7,11 11,17 0,0 1,1 1,1 2,3 3,5 5,8 0,1 1,1 1,1 2,3 3,6 5,9 0,0 1,0 1,1 2,3 3,5 5,8 2,3 4,6 6,10 20,31 45,60 73,84 31,26 56,41 96,48 82,14 168,3 247,-23z"/>
      <path class="fil43" d="M921 492l-13 0c-1,-4 -3,-9 -5,-13 0,0 1,0 1,0 7,0 14,5 17,13z"/>
      <path class="fil44" d="M908 492l-74 0c0,-1 0,-1 0,-1 -4,-5 -7,-9 -12,-13 3,-3 7,-4 10,-4 4,0 7,2 10,4 1,-18 12,-33 26,-33 14,0 25,16 25,36 0,1 0,1 0,2 3,-2 6,-3 10,-4 2,4 4,9 5,13z"/>
      <path class="fil43" d="M670 479l-114 0c4,-7 12,-11 20,-11 5,0 10,2 14,5 -1,-4 -1,-8 -1,-13 0,-25 15,-45 34,-45 19,0 35,20 35,45 2,-1 4,-2 7,-2 6,0 11,3 14,8 -3,4 -6,9 -9,13z"/>
      <path class="fil44" d="M682 479l-12 0c3,-4 6,-9 9,-13 2,3 3,7 3,11 0,1 0,1 0,2z"/>
      <path class="fil43" d="M756 358l-47 0c1,-2 4,-4 7,-4 1,0 2,0 2,0l0 0c0,-9 6,-16 14,-16 6,0 11,5 12,12 2,0 3,-1 4,-1 5,0 8,4 8,9z"/>
      <path class="fil45" d="M577 612l-62 0c1,-5 5,-8 10,-8 1,0 2,0 3,1 1,-11 9,-20 18,-20 9,0 16,7 18,17 1,-1 2,-1 3,-1 5,0 10,5 10,11z"/>
      <path class="fil46" d="M701 508c6,-16 18,-30 33,-38 15,-7 32,-10 49,-9 12,2 24,5 33,12 7,5 13,11 18,18 22,31 27,76 23,114 -2,24 -5,50 8,71 3,5 8,11 14,10 3,-1 6,-3 9,-6 7,-6 15,-12 25,-12 9,-1 19,6 20,15 0,4 -2,7 -3,10 -5,9 -14,15 -24,17 10,2 17,12 16,22 0,9 -7,18 -16,22 -9,5 -19,5 -29,4 -9,-2 -18,-6 -27,-9 4,6 4,15 -1,21 -4,7 -11,11 -18,14 -29,9 -60,-8 -70,-36 -1,8 -11,11 -18,8 -7,-4 -11,-11 -13,-18 -6,-20 -5,-42 3,-61l-32 -169z"/>
      <path class="fil18" d="M523 703c-11,-8 -22,-16 -35,-23 -6,-3 -12,-6 -18,-8 -6,-2 -11,-2 -17,-3 -15,-4 -31,-6 -46,-5 -6,0 -12,0 -18,2 -3,1 -9,1 -7,6 2,4 11,2 14,2 12,-1 25,-4 37,3 -13,-1 -25,0 -37,3 -6,2 -12,3 -18,6 -2,1 -11,5 -8,9 3,5 21,-3 26,-4 11,-3 23,-5 34,-6 -11,1 -23,5 -32,10 -6,2 -11,5 -15,8 -4,3 -11,6 -11,11 4,1 5,2 9,1 5,-1 9,-4 13,-6 10,-5 22,-9 34,-10 -16,6 -33,13 -44,26 -1,2 -2,4 -1,6 1,1 3,0 5,0 13,-6 27,-12 40,-17 -7,3 -30,13 -26,23 7,-2 14,-8 21,-10 14,-3 28,7 40,14 11,7 23,12 35,12 13,1 26,-2 35,-11l-10 -39z"/>
      <path class="fil46" d="M571 918c-13,-41 -31,-79 -51,-116 -10,-17 -20,-34 -33,-48 -14,-14 -32,-24 -51,-25 -43,-3 -80,32 -110,57 -3,3 -6,5 -8,7 3,5 6,10 9,15 14,23 32,44 51,64 10,-8 20,-15 28,-24 -1,18 1,35 4,52 27,21 50,34 86,40 26,4 53,6 80,6 8,-7 16,-14 24,-21l-29 -7z"/>
      <path class="fil47" d="M480 907c-5,-10 -10,-22 -14,-34 -5,-13 -9,-25 -14,-38 -3,-7 -6,-13 -11,-18 -3,-3 -6,-5 -9,-6 -4,-1 -7,-2 -10,-2 -4,0 -7,0 -10,1 -4,0 -7,1 -10,2 -6,2 -12,4 -17,7 -11,6 -20,13 -29,19 -2,1 -3,2 -5,3 1,1 1,2 2,3 2,-1 3,-2 5,-4 9,-6 18,-12 29,-18 5,-2 10,-5 16,-7 3,-1 6,-1 9,-2 3,0 6,-1 9,-1 3,1 7,1 9,2 3,1 6,3 8,5 5,5 8,11 10,17 6,13 10,26 14,38 5,12 9,24 15,35 5,11 11,21 17,30 1,1 1,1 2,1 1,0 1,0 2,0 -6,-10 -12,-21 -18,-33z"/>
      <path class="fil47" d="M423 821c-1,0 -7,13 -19,26 -12,13 -24,21 -23,22 0,1 3,-1 8,-4 5,-4 12,-9 18,-16 6,-6 10,-13 13,-19 2,-5 3,-8 3,-9z"/>
      <path class="fil2" d="M826 868c-9,-34 -23,-66 -40,-97 -7,-13 -15,-26 -27,-34 -16,-10 -35,-10 -54,-10l-41 52c-2,11 -13,18 -18,29 -3,8 -3,18 1,26 5,9 11,15 19,20 3,2 6,3 9,6 4,4 6,11 5,17 0,7 -3,13 -7,19 -3,3 -6,6 -6,11 0,2 1,4 2,6 4,7 9,14 14,20 21,-4 41,-10 60,-16 31,-10 59,-28 83,-49z"/>
      <path class="fil2" d="M788 518c1,-3 1,-7 0,-10 -1,-9 -5,-15 -13,-20 -8,-4 -18,-4 -24,2 0,-1 -8,-4 -9,-5 -4,0 -8,0 -11,1 -7,1 -13,4 -14,12 4,2 9,4 14,5l57 15z"/>
      <path class="fil6" d="M809 628c7,-12 12,-26 13,-40 2,-14 5,-25 -1,-39 -1,-5 -4,-8 -8,-11 -1,-1 -14,-6 -14,-4 -2,-16 -20,-24 -33,-29 -16,-5 -32,-6 -48,-7 -23,-1 -48,0 -67,15 -12,9 -21,21 -24,37 -3,16 -2,33 3,49l179 29z"/>
      <path class="fil6" d="M743 917c8,-3 15,-5 21,-9 -15,-8 -32,-15 -49,-18l-13 6c-34,-3 -68,3 -102,10 -21,5 -43,10 -64,19 -10,4 -21,10 -30,16 80,12 161,1 237,-24z"/>
      <path class="fil16" d="M637 588c-3,-3 -8,-3 -12,0 -3,3 -5,8 -6,12 -4,14 -2,29 4,42 3,5 9,9 15,8l-1 -62z"/>
      <path class="fil2" d="M689 716c-13,-3 -25,-5 -38,-7 -7,-2 -15,-3 -23,-4 -14,0 -23,4 -34,12 -4,3 -30,30 -30,29 22,10 46,17 70,21 12,2 24,4 35,1 11,-3 22,-11 25,-23l-5 -29z"/>
      <polygon class="fil16" points="714,739 670,734 677,666 722,671 "/>
      <path class="fil18" d="M764 683c4,-5 12,-17 12,-17 0,0 1,0 2,0 13,0 22,0 33,-10 8,-9 12,-22 8,-33 -2,-5 -5,-10 -10,-13 -4,-2 -11,-3 -13,-7 -3,-5 1,-13 2,-19 0,-4 0,-9 0,-14 -1,-8 -3,-15 -8,-21 -10,-13 -28,-18 -43,-22 -21,-5 -42,-11 -63,-6 -20,4 -38,18 -45,38 -6,19 -6,40 -8,60 -2,18 -5,48 8,63 23,25 72,28 102,17 9,-3 15,-7 22,-14 0,0 1,-1 1,-2z"/>
      <path class="fil13" d="M672 645c2,6 8,11 15,11 7,0 13,-5 15,-11l-30 0z"/>
      <path class="fil48" d="M771 612c-1,0 -2,0 -3,0 -21,-7 -37,-28 -38,-50 -9,4 -19,5 -28,5 -20,0 -39,-6 -54,-19l53 -25c4,0 8,-1 12,-1 10,0 20,2 29,5 7,3 15,7 19,13 6,10 3,21 5,32 2,11 8,21 9,32 1,3 0,7 -3,8 -1,0 -1,0 -1,0z"/>
      <path class="fil49" d="M807 617c0,0 -3,-1 -9,1 -5,1 -11,6 -15,13 -4,7 -5,14 -6,19 0,5 0,9 0,9 0,0 1,-4 2,-9 1,-4 2,-11 6,-18 4,-7 9,-11 14,-13 5,-2 8,-1 8,-2z"/>
      <path class="fil49" d="M791 649c0,1 1,0 3,-3 1,-2 3,-6 2,-10 0,-4 -3,-7 -5,-9 -3,-1 -5,-1 -5,-1 0,0 2,1 4,2 1,2 3,5 4,8 0,4 -1,7 -2,10 -1,2 -2,3 -1,3z"/>
      <path class="fil49" d="M680 641c0,0 -1,-1 -2,-2 -1,-2 -3,-4 -3,-7 0,-3 3,-6 6,-9 2,-2 3,-4 5,-6 0,-1 1,-2 1,-3 1,-2 1,-3 1,-4 1,-5 1,-10 1,-15 0,-2 0,-4 0,-6 -1,-2 -1,-4 -1,-6 -1,-6 -2,-10 -2,-10 0,0 0,4 0,11 1,6 2,16 0,25 0,2 -1,3 -1,4 0,1 -1,2 -1,3 -1,2 -3,3 -5,5 -1,2 -3,3 -4,5 -1,2 -2,4 -1,6 0,4 2,6 3,7 2,1 3,2 3,2z"/>
      <path class="fil49" d="M691 636c-1,-1 -2,0 -3,1 -1,1 -1,2 -1,3 1,0 2,-1 3,-2 1,-1 1,-2 1,-2z"/>
      <path class="fil49" d="M715 624c1,0 2,-5 3,-10 0,-6 0,-11 -1,-11 -1,0 -2,5 -3,10 0,6 0,11 1,11z"/>
      <path class="fil49" d="M658 623c1,0 2,-5 2,-11 1,-6 0,-11 -1,-11 -1,0 -2,5 -2,11 -1,6 0,11 1,11z"/>
      <path class="fil49" d="M671 574c0,-1 -1,-2 -4,-2 -3,-1 -7,-1 -11,1 -4,2 -7,4 -9,6 -1,2 -2,4 -1,5 1,1 6,-2 13,-4 6,-3 12,-4 12,-6z"/>
      <path class="fil49" d="M736 586c0,-1 -1,-3 -3,-5 -2,-3 -6,-5 -10,-7 -5,-2 -9,-2 -12,-2 -4,0 -6,1 -6,2 0,2 7,4 15,7 8,3 14,6 16,5z"/>
      <path class="fil2" d="M945 508l-74 0c-14,0 -25,11 -25,24l0 36c0,14 11,25 25,25l6 0 -1 11c-1,5 5,8 9,5l19 -16 41 0c13,0 24,-11 24,-25l0 -36c0,-13 -11,-24 -24,-24z"/>
      <path class="fil6" d="M935 523c-10,1 -21,2 -31,3 -1,0 -3,1 -2,3 2,8 4,21 1,30 -1,-3 -4,-5 -7,-5 -5,0 -9,4 -9,10 0,5 4,9 9,9 3,0 5,-2 7,-4 5,-8 5,-17 4,-27 10,-1 19,-2 28,-1 1,-6 2,-13 0,-18z"/>
      <path class="fil50" d="M858 589c-7,-4 -12,-12 -12,-21l0 0c0,9 5,17 12,21l0 0zm-12 -57c0,0 0,0 0,0 0,0 0,0 0,0zm0 0c0,0 0,0 0,0 0,0 0,0 0,0zm0 0c0,0 0,0 0,0 0,0 0,0 0,0zm0 0c0,0 0,0 0,0 0,0 0,0 0,0zm0 0c0,0 0,0 0,0 0,0 0,0 0,0zm0 0c0,0 0,0 0,0 0,0 0,0 0,0zm0 0l0 0z"/>
      <path class="fil51" d="M881 610c-3,0 -5,-2 -5,-5 0,0 0,-1 0,-1l1 -11 -6 0c-5,0 -9,-1 -13,-4 -7,-4 -12,-12 -12,-21l0 -36c0,0 0,0 0,0 0,0 0,0 0,0 0,0 0,0 0,0 0,0 0,0 0,0 0,0 0,0 0,0 0,0 0,0 0,0 0,0 0,0 0,0 0,0 0,0 0,0 0,0 0,0 0,0 0,0 0,0 0,0 0,0 0,0 0,0 0,0 0,0 0,0 0,0 0,0 0,0l0 0c1,-12 9,-22 21,-24 2,6 4,13 6,19 2,10 6,21 14,28 1,1 1,2 2,2 -1,2 -2,4 -2,7 0,5 4,9 9,9 3,0 5,-2 7,-4 1,-2 2,-4 2,-6 3,1 7,1 10,1 0,0 0,0 1,0 9,0 19,-1 28,-1 1,-1 2,-1 3,-1 7,0 15,1 22,3l0 3c0,14 -11,25 -24,25l-41 0 -19 16c-1,1 -3,1 -4,1z"/>
      <path class="fil52" d="M896 573c-5,0 -9,-4 -9,-9 0,-3 1,-5 2,-7 5,4 11,5 16,6 0,2 -1,4 -2,6 -2,2 -4,4 -7,4z"/>
      <path class="fil6" d="M760 518c-21,-8 -44,-12 -66,-9 -9,2 -16,5 -23,10 -8,5 -18,8 -27,12 -7,4 -10,12 -1,15 4,1 7,1 11,2 5,1 11,3 16,4 23,5 46,3 68,-4 -1,21 9,43 24,58 6,5 13,9 20,8 3,0 6,-2 9,-3 5,-3 10,-8 13,-13 6,-11 0,-23 -2,-34 -3,-12 -8,-24 -17,-32 -7,-6 -16,-11 -25,-14z"/>
      <path class="fil53" d="M532 927c-8,-4 -15,-10 -20,-18 -3,-5 -7,-10 -11,-15 -9,-8 -22,-11 -33,-16 -1,-2 -2,-3 -2,-5 -1,-1 -1,-2 -1,-3l75 37c2,5 7,9 12,9l5 1c-7,2 -14,5 -21,8 -1,1 -3,1 -4,2zm-69 -52c-3,-2 -5,-5 -5,-9 1,1 1,2 2,2 1,2 2,4 2,6 0,0 1,1 1,1z"/>
      <path class="fil54" d="M468 878c-1,0 -1,0 -1,0 -1,-1 -3,-2 -4,-3 0,0 -1,-1 -1,-1 0,-2 -1,-4 -2,-6 0,0 0,0 0,0l5 2c0,1 0,2 1,3 0,2 1,3 2,5z"/>
      <path class="fil55" d="M548 930c-1,0 -2,0 -3,0 -5,0 -9,-1 -13,-3 1,-1 3,-1 4,-2 7,-3 14,-6 21,-8l8 1c1,0 1,0 2,0 3,0 6,-1 8,-2l80 -5c2,1 5,3 7,4 -27,10 -57,2 -84,9 -10,2 -20,6 -30,6z"/>
      <path class="fil56" d="M782 660c-1,0 -3,0 -4,0 0,0 -1,0 -1,-1 0,0 0,0 0,-1 0,0 0,0 0,0 0,0 0,1 0,1 0,0 0,0 0,0 0,0 1,-4 2,-9 1,-4 2,-11 6,-18 1,-2 2,-3 3,-5 1,1 1,1 2,1 1,2 3,5 4,8 0,4 -1,7 -2,10 -1,2 -2,3 -1,3 0,0 0,0 0,0 0,0 1,-1 3,-3 1,-2 3,-6 2,-10 0,-4 -3,-7 -5,-9 -1,0 -1,0 -2,-1 3,-3 7,-6 10,-7 5,-2 8,-1 8,-2 0,0 -1,0 -3,0 -1,0 -2,0 -4,0 1,0 2,-1 3,-1 1,0 2,0 3,0 2,0 4,1 5,2 6,10 2,27 -7,35 -6,5 -14,7 -22,7z"/>
      <path class="fil57" d="M777 659c0,0 0,0 0,0 0,0 0,-1 0,-1 0,-5 1,-10 2,-15 1,-2 2,-5 3,-7 1,-3 3,-6 6,-8 0,0 0,-1 0,-1 0,0 0,0 0,0 -1,2 -2,3 -3,5 -4,7 -5,14 -6,18 -1,5 -2,9 -2,9zm12 -33c0,0 0,0 0,0 3,-4 7,-7 11,-9 2,0 3,0 4,0 2,0 3,0 3,0 0,1 -3,0 -8,2 -3,1 -7,4 -10,7z"/>
      <path class="fil57" d="M791 649c0,0 0,0 0,0 -1,0 0,-1 1,-3 1,-3 2,-6 2,-10 -1,-3 -3,-6 -4,-8 -1,0 -1,0 -2,-1 0,0 0,0 0,0 0,0 1,0 1,-1 0,0 0,0 0,0 1,1 1,1 2,1 2,2 5,5 5,9 1,4 -1,8 -2,10 -2,2 -3,3 -3,3z"/>
      <path class="fil58" d="M785 657l-8 19c-1,1 0,3 1,4 2,1 4,0 5,-1l10 -21 -8 -1z"/>
      <path class="fil13" d="M802 649c-2,9 -9,15 -15,14 -6,-2 -10,-10 -7,-19 2,-9 9,-15 15,-14 6,2 9,10 7,19z"/>
      <path class="fil58" d="M786 645c2,-7 7,-13 12,-13 -1,-1 -2,-1 -3,-2 -6,-1 -13,5 -15,14 -3,9 1,17 7,19 1,0 2,0 3,0 -4,-3 -6,-10 -4,-18z"/>
      <polygon class="fil59" points="491,690 504,685 513,691 508,683 517,679 586,744 550,745 491,692 "/>
      <path class="fil59" d="M577 739c1,0 118,-25 118,-25l4 3 -18 7 22 -4 17 12 -66 27 -77 -20z"/>
      <path class="fil60" d="M562 732l-74 -44c-4,-2 -9,0 -9,5l-23 168c0,3 2,6 4,7l80 39 22 -175z"/>
      <path class="fil60" d="M604 737l116 -5c4,0 8,3 7,8l-26 163c0,3 -3,5 -6,6l-120 7 29 -179z"/>
      <path class="fil61" d="M479 693c0,0 0,0 0,0 0,0 0,0 0,0zm0 0c0,0 0,0 0,0 0,0 0,0 0,0zm0 0c0,0 0,0 0,0 0,0 0,0 0,0zm0 0c0,0 0,0 0,0 0,0 0,0 0,0z"/>
      <path class="fil62" d="M540 907l-75 -37 -5 -2c0,0 0,0 0,0 -2,-1 -4,-3 -4,-6 0,0 0,-1 0,-1l23 -168c0,0 0,0 0,0 0,0 0,0 0,0 0,0 0,0 0,0 0,0 0,0 0,0 0,0 0,0 0,0 0,0 0,0 0,0 0,0 0,0 0,0 0,-4 3,-6 6,-6 1,0 2,0 2,1 2,6 2,14 2,21 0,29 -4,58 -1,87 0,9 2,19 5,27 5,10 13,18 21,26 9,8 20,16 29,25l-3 26c0,1 -1,2 -1,2 0,1 0,1 1,1 0,2 0,3 0,4z"/>
      <path class="fil2" d="M602 737c-1,3 -10,4 -21,3 -10,-1 -18,-5 -19,-8l-22 168c-1,8 4,15 12,16l13 2c8,1 15,-4 16,-12l23 -169 -2 0z"/>
      <path class="fil62" d="M575 916c3,-2 6,-6 6,-10l8 -56c6,4 15,7 19,14 2,3 3,6 5,9 1,2 4,5 6,7 6,5 11,10 17,15 6,6 12,11 19,16l-80 5zm127 -18c-9,-7 -19,-15 -27,-23 -4,-4 -8,-11 -12,-14 -2,-1 -4,-1 -6,-1 -1,0 -2,0 -3,0 -1,0 -1,0 -2,0 -1,0 -1,0 -2,0 -10,-1 -21,-4 -29,-9 -7,-4 -13,-9 -20,-13 -2,-1 -6,-2 -10,-3l13 -98 22 -1c0,3 1,7 1,10 2,18 2,36 1,54 0,6 -1,12 1,18 3,11 12,19 22,25 18,11 37,20 55,32l-4 23z"/>
      <path class="fil63" d="M575 916l11 -68c1,0 2,1 3,2l-8 56c0,4 -3,8 -6,10l0 0 0 0zm16 -81c-1,0 -2,0 -3,0l16 -98 -13 98z"/>
      <path class="fil59" d="M589 766c-1,6 -6,11 -12,10 -5,-1 -9,-7 -8,-13 1,-7 6,-11 11,-11 6,1 10,7 9,14z"/>
      <path class="fil6" d="M561 901c-5,0 -9,-5 -8,-10l4 -32c1,-5 5,-8 10,-8l0 0c5,1 9,6 8,11l-4 31c-1,5 -5,9 -10,8z"/>
      <path class="fil64" d="M576 739c-7,-1 -13,-4 -14,-7 1,3 7,6 14,7 0,0 0,0 0,0zm-14 -7c0,0 0,0 0,0 0,0 0,0 0,0zm0 0c0,0 0,0 0,0 0,0 0,0 0,0zm0 0c0,0 0,0 0,0 0,0 0,0 0,0zm0 0c0,0 0,0 0,0 0,0 0,0 0,0zm0 0c0,0 0,0 0,0 0,0 0,0 0,0zm0 0c0,0 0,0 0,0 0,0 0,0 0,0zm0 0c0,0 0,0 0,0 0,0 0,0 0,0zm0 0c0,0 0,0 0,0 0,0 0,0 0,0z"/>
      <path class="fil63" d="M567 918c-1,0 -1,0 -2,0l0 0 -13 -2c-7,0 -12,-6 -12,-13 -1,0 -1,0 -1,-1 0,0 1,-1 1,-2l22 -168c0,0 0,0 0,0 0,0 0,0 0,0 0,0 0,0 0,0 0,0 0,0 0,0 0,0 0,0 0,0 0,0 0,0 0,0 0,0 0,0 0,0 0,0 0,0 0,0 0,0 0,0 0,0 0,0 0,0 0,0 0,0 0,0 0,0 0,0 0,0 0,0 0,0 0,0 0,0 0,0 0,0 0,0 0,0 0,0 0,0 0,0 0,0 0,0 0,0 0,0 0,0 1,3 7,6 14,7 1,4 2,9 2,13 -5,1 -8,5 -9,11 -1,6 3,12 8,13 0,0 0,0 0,0 0,4 0,9 -1,13 -3,21 -7,42 -7,63 -1,0 -1,-1 -2,-1l0 0c0,0 -1,0 -1,0 -5,0 -9,4 -9,8l-4 32c-1,5 3,10 8,10 0,0 1,0 1,0 5,0 9,-3 9,-8l1 -3c1,8 1,17 1,26 0,0 0,1 0,1 -2,1 -4,1 -6,1z"/>
      <path class="fil64" d="M577 776c0,0 0,0 0,0 -5,-1 -9,-7 -8,-13 1,-6 4,-10 9,-11 0,8 0,16 -1,24z"/>
      <path class="fil55" d="M562 901c0,0 -1,0 -1,0 -5,0 -9,-5 -8,-10l4 -32c0,-4 4,-8 9,-8 0,0 1,0 1,0l0 0c1,0 1,1 2,1 0,2 0,4 0,6 0,11 1,21 3,32l-1 3c0,5 -4,8 -9,8z"/>
      <path class="fil65" d="M706 923c-8,0 -15,0 -22,-1 -7,-2 -15,-4 -22,-7 0,0 0,0 0,0 0,0 1,-1 1,-1 2,0 3,-1 4,-2 1,-1 1,-1 1,-2l27 -1c0,0 0,0 0,0 3,-1 6,-3 6,-6l1 -5c8,7 17,15 23,24 -6,1 -13,1 -19,1z"/>
      <path class="fil66" d="M662 915c-2,-1 -5,-3 -7,-4l13 -1c0,1 0,1 -1,2 -1,1 -2,2 -4,2 0,0 -1,1 -1,1z"/>
      <path class="fil67" d="M695 909c3,-1 6,-3 6,-6l1 -5c0,0 0,0 0,0l-1 5c0,3 -3,5 -6,6z"/>
      <path class="fil68" d="M586 848c0,0 0,-1 -1,-1 -3,-2 -8,-8 -3,-11 1,-1 3,-1 5,-1 0,0 1,0 1,0l-2 13z"/>
      <path class="fil69" d="M655 911c-7,-5 -13,-10 -19,-16 -6,-5 -11,-10 -17,-15 -2,-2 -5,-5 -6,-7 -2,-3 -3,-6 -5,-9 -4,-7 -13,-10 -19,-14l2 -15c4,1 8,2 10,3 7,4 13,9 20,13 8,5 19,8 29,9 1,0 1,0 2,0 1,0 1,0 2,0 1,0 2,0 3,0 2,0 4,0 6,1 4,3 8,10 12,14 8,8 18,16 27,23l-1 5c0,3 -3,5 -6,6 0,0 0,0 0,0l-40 2z"/>
      <path class="fil70" d="M589 850c-1,-1 -2,-2 -3,-2l2 -13c1,0 2,0 3,0l-2 15z"/>
      <path class="fil18" d="M699 845c-20,-1 -37,-15 -52,-28 -15,-13 -31,-27 -51,-28 -1,0 -2,0 -3,1 0,1 0,1 1,2 2,4 7,6 12,8 10,4 19,10 27,17 -14,-9 -29,-14 -44,-16 -3,-1 -15,-3 -16,2 -2,5 24,10 28,11 10,3 19,8 27,15 -16,-8 -33,-13 -51,-14 -2,0 -4,0 -5,2 -1,2 2,5 5,6 18,6 38,8 53,19 -13,-4 -26,-7 -40,-8 -3,0 -7,-1 -10,0 -1,1 -7,2 -4,4 7,4 16,6 24,9 8,4 15,9 21,15 6,6 10,13 16,18 15,13 36,13 55,13l7 -48z"/>
      <path class="fil6" d="M759 737l-1 0c-6,1 -14,5 -21,11 -4,3 -7,7 -9,12 -1,5 -3,10 -4,15 0,1 0,3 0,4 0,1 0,3 0,4 0,3 0,5 0,8 0,1 0,2 0,3 0,1 0,3 1,4 0,2 0,5 1,7 1,9 3,17 5,24 1,2 1,4 2,6 0,0 1,1 1,1 0,-3 -1,-5 -1,-8 -2,-7 -4,-15 -5,-23 -1,-3 -1,-5 -1,-7 0,-2 0,-3 0,-4 -1,-1 -1,-2 -1,-4 0,-2 0,-4 0,-7 0,-1 0,-3 0,-4 1,-1 1,-2 1,-4 0,-5 2,-10 4,-14 1,-5 4,-8 7,-11 7,-7 14,-10 21,-11 1,-1 1,-1 2,-1 -1,0 -1,-1 -2,-1z"/>
      <path class="fil2" d="M825 861c-1,-4 -3,-7 -4,-10 -1,-1 -1,-2 -3,-3 -1,-1 -2,-1 -3,-1 -11,0 -21,-4 -31,-5 -10,-2 -21,-2 -31,-4 -32,-7 -64,-14 -97,-19 -7,24 -13,48 -17,73l0 0c41,25 88,39 136,39 17,0 34,-2 45,-17 12,-16 11,-36 5,-53z"/>
      <path class="fil8" d="M772 931c1,0 2,0 3,0 17,0 34,-2 45,-17 8,-10 10,-22 9,-34 -11,4 -21,10 -30,18 -11,9 -20,20 -27,33z"/>
      <path class="fil6" d="M794 862c0,0 -1,-1 -4,-2 -2,-2 -6,-4 -10,-6 -9,-5 -22,-11 -36,-16 -15,-5 -28,-8 -38,-10 -5,-1 -9,-2 -12,-2 -3,0 -4,-1 -4,0 0,0 6,1 16,4 9,2 23,6 37,11 14,5 27,10 36,15 9,4 15,7 15,6z"/>
      <path class="fil6" d="M763 834c0,0 -6,-3 -15,-2 -8,1 -14,3 -14,4 0,1 6,-1 14,-2 8,0 15,1 15,0z"/>
      <path class="fil6" d="M667 821c-4,10 -8,22 -11,36 -4,15 -6,30 -7,41 1,0 1,0 2,1 1,-11 4,-26 7,-41 4,-14 7,-27 11,-37 -1,0 -2,0 -2,0z"/>
      <path class="fil53" d="M449 751c-2,0 -3,0 -4,0 -6,0 -13,-2 -19,-2 0,0 -1,0 -2,0 -4,0 -9,1 -14,2 0,0 -1,0 -2,0 -4,0 -8,-1 -11,-3 -2,-1 -3,-3 -3,-5 0,-2 2,-3 4,-4 3,4 8,6 14,6l0 0 38 0 1 0c1,0 2,0 3,0 5,-1 9,-3 12,-7 1,2 2,4 1,5 0,2 -1,3 -3,4 -4,3 -10,4 -15,4z"/>
      <path class="fil13" d="M450 598l-38 0 -29 0 10 129c0,10 9,18 19,18l0 0 38 0 1 0c10,0 18,-8 19,-18l9 -129 -29 0z"/>
      <path class="fil71" d="M444 636l-26 0 -19 0 6 86c1,7 6,12 13,12l0 0 26 0 0 0c7,0 13,-5 13,-12l7 -86 -20 0z"/>
      <path class="fil72" d="M436 696c0,0 -1,0 -1,0 -2,0 -3,-2 -3,-4l30 -127c0,-2 2,-3 4,-3l48 11c2,1 3,3 3,5 -1,2 -2,3 -4,2l-45 -10 -29 123c0,2 -1,3 -3,3z"/>
      <path class="fil73" d="M407 707l0 0c9,11 25,12 36,3 11,-9 13,-25 4,-36l0 0 -40 33z"/>
      <path class="fil10" d="M440 707c9,-8 11,-21 3,-30l0 0 -33 27 0 0c8,9 21,10 30,3z"/>
      <path class="fil74" d="M430 712c0,0 -1,-5 -2,-11 -1,-6 -2,-11 -2,-11 0,1 0,2 0,4 0,2 1,4 1,7 1,3 1,6 2,8 0,2 1,3 1,3z"/>
      <path class="fil74" d="M446 698c1,0 -1,-1 -2,-1 -2,-1 -5,-2 -7,-3 -3,-1 -6,-2 -8,-3 -1,0 -3,-1 -3,0 0,0 1,0 3,1 4,1 6,2 7,2 2,1 4,2 7,3 2,1 3,1 3,1z"/>
      <path class="fil74" d="M418 701c-1,0 -1,0 -2,2 -1,1 -1,2 -1,2 0,0 1,-1 2,-2 0,-1 1,-2 1,-2z"/>
      <path class="fil74" d="M419 703c-1,0 -1,1 -1,2 -1,2 -1,3 0,3 0,0 0,-1 0,-2 1,-2 1,-3 1,-3z"/>
      <path class="fil74" d="M422 697c0,0 -1,1 -1,3 -1,1 -1,2 -1,2 1,0 1,-1 1,-2 1,-2 1,-3 1,-3z"/>
      <path class="fil74" d="M422 705c0,0 -1,1 -1,2 0,1 0,2 0,2 1,0 1,-1 1,-2 0,-1 0,-2 0,-2z"/>
      <path class="fil74" d="M424 696c0,0 0,1 0,2 0,1 0,2 0,2 0,0 0,-1 0,-2 1,-1 1,-2 0,-2z"/>
      <path class="fil74" d="M425 706c0,0 0,-1 0,-2 0,-1 0,-2 -1,-2 0,0 0,1 0,2 0,1 0,2 1,2z"/>
      <path class="fil74" d="M429 696c0,0 0,0 0,-1 0,-1 0,-2 0,-2 -1,0 -1,1 -1,2 0,1 1,1 1,1z"/>
      <path class="fil74" d="M433 700c0,0 0,-1 -1,-3 0,-1 -1,-2 -1,-2 0,0 0,1 1,2 0,2 1,3 1,3z"/>
      <path class="fil74" d="M431 704c0,0 0,-1 0,-2 0,-1 -1,-2 -1,-2 0,0 0,1 0,2 0,1 1,2 1,2z"/>
      <path class="fil74" d="M435 707c0,0 0,-1 -1,-3 0,-1 -1,-2 -1,-2 0,0 0,1 1,3 0,1 1,2 1,2z"/>
      <path class="fil74" d="M439 702c0,0 0,-1 -2,-3 -1,-2 -3,-4 -3,-3 0,0 1,1 3,3 1,2 2,4 2,3z"/>
      <path class="fil74" d="M441 700c0,0 0,-1 -1,-2 -1,0 -2,-1 -2,0 0,0 1,0 1,1 1,1 2,1 2,1z"/>
      <path class="fil74" d="M438 705c1,0 0,-1 0,-1 -1,-1 -1,-2 -1,-1 -1,0 0,0 0,1 1,1 1,1 1,1z"/>
      <path class="fil74" d="M433 708c0,0 0,0 0,-1 0,0 -1,0 -1,0 0,0 0,0 0,1 0,0 0,0 1,0z"/>
      <path class="fil74" d="M434 690c0,0 -1,0 -1,0 -1,0 -2,0 -2,0 0,0 1,0 2,1 0,0 1,0 1,-1z"/>
      <path class="fil74" d="M438 686c0,0 -1,0 -2,0 -2,1 -3,1 -3,1 0,1 1,0 3,0 1,0 3,-1 2,-1z"/>
      <path class="fil74" d="M440 689c0,-1 -1,-1 -2,-1 -1,0 -2,1 -2,1 0,0 1,0 2,0 1,0 2,0 2,0z"/>
      <path class="fil74" d="M441 692c0,0 0,0 -1,0 0,0 -1,0 -1,0 0,0 1,0 1,0 1,0 1,0 1,0z"/>
      <path class="fil74" d="M446 687c0,-1 -1,-1 -2,-1 -2,0 -3,0 -3,1 0,0 1,0 3,0 1,0 2,0 2,0z"/>
      <path class="fil74" d="M445 690c0,0 0,0 -1,0 -1,0 -2,0 -2,0 0,0 1,0 2,1 0,0 1,0 1,-1z"/>
      <path class="fil74" d="M445 694l-1 0c0,0 0,0 0,0 0,0 0,0 1,0 0,0 0,0 0,0z"/>
      <path class="fil74" d="M442 681c0,0 -1,1 -2,1 -2,1 -3,1 -3,1 0,0 2,0 3,0 1,-1 2,-2 2,-2z"/>
      <path class="fil74" d="M444 684c0,-1 0,-1 -1,0 -1,0 -1,0 -1,0 0,1 1,1 1,0 1,0 1,0 1,0z"/>
      <path class="fil73" d="M420 613l0 0c-13,6 -18,22 -12,35 7,13 22,18 35,12l0 -1 -23 -46z"/>
      <path class="fil10" d="M412 646c6,10 18,15 29,9l0 0 -19 -38 0 0c-10,5 -15,18 -10,29z"/>
      <path class="fil74" d="M410 634c0,1 5,1 11,1 6,0 11,1 11,1 0,0 -2,-1 -4,-1 -1,0 -4,-1 -7,-1 -3,0 -6,0 -8,0 -2,0 -3,0 -3,0z"/>
      <path class="fil74" d="M420 654c0,0 1,-1 2,-3 1,-1 2,-3 4,-6 2,-2 3,-5 4,-6 1,-2 2,-3 1,-3 0,0 0,1 -1,2 -2,3 -4,5 -5,7 0,1 -2,3 -4,6 -1,2 -1,3 -1,3z"/>
      <path class="fil74" d="M424 625c0,0 -1,-1 -2,-2 -1,-1 -2,-2 -2,-2 0,0 0,1 1,2 2,1 3,2 3,2z"/>
      <path class="fil74" d="M421 625c0,0 -1,0 -2,-1 -1,-1 -2,-1 -2,-1 0,0 1,1 2,2 1,0 2,1 2,0z"/>
      <path class="fil74" d="M426 630c0,0 -1,-1 -2,-2 -1,-1 -3,-1 -3,-1 0,0 1,1 3,2 1,0 2,1 2,1z"/>
      <path class="fil74" d="M418 628c1,0 0,0 -1,-1 -1,0 -2,0 -2,0 0,0 1,0 2,1 1,0 1,1 1,0z"/>
      <path class="fil74" d="M427 633c0,-1 -1,-1 -2,-1 -1,-1 -2,-1 -2,-1 0,0 1,1 2,1 1,1 2,1 2,1z"/>
      <path class="fil74" d="M417 631c0,0 1,0 2,0 1,0 2,0 2,0 0,0 -1,0 -2,0 -1,-1 -2,-1 -2,0z"/>
      <path class="fil74" d="M425 637c0,0 1,0 2,0 0,0 1,0 1,0 0,0 0,0 -1,0 -1,0 -2,0 -2,0z"/>
      <path class="fil74" d="M421 640c0,0 1,0 3,0 1,0 2,0 2,0 0,-1 -1,-1 -2,0 -2,0 -3,0 -3,0z"/>
      <path class="fil74" d="M417 637c0,0 1,1 2,1 1,0 2,-1 2,-1 0,0 -1,0 -2,0 -1,0 -2,0 -2,0z"/>
      <path class="fil74" d="M414 640c0,1 1,1 2,0 1,0 2,0 2,0 0,0 -1,0 -2,0 -1,0 -2,0 -2,0z"/>
      <path class="fil74" d="M417 646c0,0 2,-1 4,-2 2,0 4,-2 4,-2 0,0 -2,1 -4,2 -2,1 -4,1 -4,2z"/>
      <path class="fil74" d="M419 648c0,0 1,0 2,-1 1,0 1,-1 1,-1 0,0 -1,0 -2,1 0,0 -1,1 -1,1z"/>
      <path class="fil74" d="M415 644c0,0 0,0 1,0 1,0 2,-1 1,-1 0,0 0,0 -1,0 -1,1 -2,1 -1,1z"/>
      <path class="fil74" d="M413 638c0,0 0,0 1,0 0,0 0,0 0,0 0,-1 0,-1 -1,-1 0,1 0,1 0,1z"/>
      <path class="fil74" d="M430 643c0,0 0,0 1,-1 0,0 0,-1 0,-1 0,0 -1,0 -1,1 0,0 0,1 0,1z"/>
      <path class="fil74" d="M433 649c0,0 1,-2 1,-3 0,-2 -1,-3 -1,-3 0,0 0,1 0,3 0,1 0,3 0,3z"/>
      <path class="fil74" d="M430 650c0,0 1,-1 1,-2 0,-2 0,-3 0,-3 0,0 -1,1 -1,2 0,2 0,3 0,3z"/>
      <path class="fil74" d="M427 650c0,0 0,0 0,-1 0,0 0,-1 0,-1 0,0 0,0 0,1 -1,0 -1,1 0,1z"/>
      <path class="fil74" d="M431 656c0,0 0,-1 1,-2 0,-2 0,-3 0,-3 0,0 -1,1 -1,2 0,2 0,3 0,3z"/>
      <path class="fil74" d="M427 654c0,0 1,0 1,-1 1,-1 1,-2 0,-2 0,0 0,1 0,2 -1,0 -1,1 -1,1z"/>
      <path class="fil74" d="M424 653c0,0 0,0 0,0 0,-1 0,-1 0,-1 0,0 0,0 0,1 0,0 0,0 0,0z"/>
      <path class="fil74" d="M437 653c0,0 0,-1 0,-2 -1,-2 -1,-3 -1,-3 0,0 0,1 0,3 0,1 1,2 1,2z"/>
      <path class="fil74" d="M434 655c0,0 0,-1 0,-1 0,-1 0,-1 0,-1 0,0 0,0 0,1 0,0 0,1 0,1z"/>
      <path class="fil75" d="M451 745l-1 0 -38 0 0 0c-10,0 -18,-7 -19,-16 0,-1 0,-1 0,-2l-1 -9 -1 -8 0 -12 -1 -6 -1 -10 0 -8 -1 -8 -5 -68 19 0c5,6 8,13 10,20 0,0 0,1 0,1 -4,5 -6,11 -6,17l-7 0 6 86c1,7 6,12 13,12l0 0 26 0 0 0c7,0 13,-5 13,-12l2 -25c4,2 9,4 13,6l-2 24c-1,9 -7,16 -16,18 -1,0 -2,0 -3,0z"/>
      <path class="fil76" d="M444 734l0 0 -26 0 0 0c-7,0 -12,-5 -13,-12l-6 -86 7 0c-1,4 0,8 2,12 3,5 6,8 11,11 0,2 1,5 1,7 2,7 4,14 9,18 1,1 2,2 2,2l-24 21 0 0c5,6 12,9 20,9 6,0 11,-2 16,-6 5,-4 8,-9 9,-15 3,1 5,1 7,2l-2 25c0,7 -6,12 -13,12z"/>
      <path class="fil77" d="M427 716c-8,0 -15,-3 -20,-9l0 0 24 -21 -21 18 0 0c5,5 11,8 17,8 1,0 2,0 3,-1 0,1 0,1 0,1 0,0 0,0 0,0 0,0 0,0 0,-1 4,0 7,-2 10,-4 5,-4 7,-9 8,-14 1,1 3,1 4,2 -1,6 -4,11 -9,15 -5,4 -10,6 -16,6z"/>
      <path class="fil78" d="M427 712c-6,0 -12,-3 -17,-8l0 0 21 -18c1,1 1,1 2,1 0,0 0,0 0,0 0,0 0,0 0,0 0,0 0,0 0,0 1,1 2,1 3,2 0,0 0,0 0,0 0,0 0,0 0,0 0,0 1,0 1,0 2,1 4,2 6,2 1,1 3,2 5,2 -1,5 -3,10 -8,14 -3,2 -6,4 -10,4 0,-1 -1,-5 -2,-10 -1,-6 -2,-11 -2,-11 0,1 0,2 0,4 0,2 1,4 1,7 1,3 1,6 2,8 0,1 1,2 1,2 -1,1 -2,1 -3,1zm-5 -7c0,0 -1,1 -1,2 0,1 0,2 0,2 0,0 0,0 0,0 1,0 1,-1 1,-2 0,-1 0,-2 0,-2 0,0 0,0 0,0zm10 2c0,0 0,0 0,0 0,0 0,0 0,1 0,0 0,0 1,0 0,0 0,0 0,0 0,0 0,0 0,-1 0,0 -1,0 -1,0zm-13 -4c-1,0 -1,1 -1,2 -1,2 -1,3 0,3 0,0 0,0 0,0 0,0 0,-1 0,-2 1,-2 1,-3 1,-3 0,0 0,0 0,0zm14 -1c0,0 0,0 0,0 0,0 0,1 1,3 0,1 1,2 1,2 0,0 0,0 0,0 0,0 0,-1 -1,-3 0,-1 -1,-2 -1,-2zm-9 0c0,0 0,1 0,2 0,1 0,2 1,2 0,0 0,0 0,0 0,0 0,-1 0,-2 0,-1 0,-2 -1,-2zm-6 -1c-1,0 -1,1 -2,2 -1,1 -1,2 -1,2 0,0 0,0 0,0 0,0 1,-1 2,-2 0,-1 1,-2 1,-2 0,0 0,0 0,0zm19 2c0,0 0,0 0,0 -1,0 0,0 0,1 1,1 1,1 1,1 0,0 0,0 0,0 1,0 0,-1 0,-1 -1,-1 -1,-1 -1,-1zm-7 -3c0,0 0,0 0,0 0,0 0,1 0,2 0,1 1,2 1,2 0,0 0,0 0,0 0,0 0,-1 0,-2 0,-1 -1,-2 -1,-2zm4 -4c0,0 0,0 0,0 0,0 1,1 3,3 1,2 2,3 2,3 0,0 0,0 0,0 0,0 0,-1 -2,-3 -1,-2 -3,-3 -3,-3zm-12 1c0,0 -1,1 -1,3 -1,1 -1,2 -1,2 0,0 0,0 0,0 1,0 1,-1 1,-2 1,-2 1,-3 1,-3 0,0 0,0 0,0zm9 -2c0,0 0,0 0,0 0,0 0,1 1,2 0,2 1,3 1,3 0,0 0,0 0,0 0,0 0,-1 -1,-3 0,-1 -1,-2 -1,-2zm7 3c0,0 0,0 0,0 0,0 1,0 1,1 1,0 2,1 2,1 0,0 0,0 0,0 0,0 0,-1 -1,-2 -1,0 -1,0 -2,0zm-14 -2c0,0 0,1 0,2 0,1 0,2 0,2 0,0 0,0 0,0 0,0 0,-1 0,-2 1,-1 1,-2 0,-2 0,0 0,0 0,0zm2 -5c0,0 0,0 0,0 0,0 1,0 3,1 4,1 6,2 7,2 2,1 4,2 7,3 2,1 3,1 3,1 0,0 0,0 0,0 1,0 -1,-1 -2,-1 -2,-1 -5,-2 -7,-3 -3,-1 -6,-2 -8,-3 -1,0 -2,0 -3,0zm3 2c-1,0 -1,1 -1,2 0,1 1,1 1,1 0,0 0,0 0,0 0,0 0,0 0,-1 0,-1 0,-2 0,-2 0,0 0,0 0,0zm15 1c0,0 0,0 0,0 0,0 0,0 0,0 1,0 1,0 1,0 0,0 0,0 0,0l-1 0zm-4 -2c0,0 -1,0 -1,0 0,0 1,0 1,0 0,0 0,0 0,0 1,0 1,0 1,0 0,0 0,0 -1,0 0,0 0,0 0,0zm-8 -2c0,0 -1,0 -1,0 0,0 1,0 2,1 0,0 0,0 0,0 1,0 1,0 1,-1 0,0 -1,0 -1,0 0,0 -1,0 -1,0z"/>
      <path class="fil77" d="M430 712c0,0 0,0 0,-1 0,0 -1,-1 -1,-2 -1,-2 -1,-5 -2,-8 0,-3 -1,-5 -1,-7 0,-2 0,-3 0,-4 0,0 1,5 2,11 1,5 2,9 2,10 0,1 0,1 0,1 0,0 0,0 0,0z"/>
      <path class="fil77" d="M446 698c0,0 -1,0 -3,-1 -3,-1 -5,-2 -7,-3 -1,0 -3,-1 -7,-2 -2,-1 -3,-1 -3,-1 0,0 0,0 0,0 1,0 2,0 3,0 2,1 5,2 8,3 2,1 5,2 7,3 1,0 3,1 2,1 0,0 0,0 0,0z"/>
      <path class="fil77" d="M415 705c0,0 0,0 0,0 0,0 0,-1 1,-2 1,-1 1,-2 2,-2 0,0 0,0 0,0 0,0 -1,1 -1,2 -1,1 -2,2 -2,2z"/>
      <path class="fil77" d="M418 708c0,0 0,0 0,0 -1,0 -1,-1 0,-3 0,-1 0,-2 1,-2 0,0 0,0 0,0 0,0 0,1 -1,3 0,1 0,2 0,2z"/>
      <path class="fil77" d="M420 702c0,0 0,0 0,0 0,0 0,-1 1,-2 0,-2 1,-3 1,-3 0,0 0,0 0,0 0,0 0,1 -1,3 0,1 0,2 -1,2z"/>
      <path class="fil77" d="M421 709c0,0 0,-1 0,-2 0,-1 1,-2 1,-2 0,0 0,0 0,0 0,0 0,1 0,2 0,1 0,2 -1,2 0,0 0,0 0,0z"/>
      <path class="fil77" d="M424 700c0,0 0,0 0,0 0,0 0,-1 0,-2 0,-1 0,-2 0,-2 0,0 0,0 0,0 1,0 1,1 0,2 0,1 0,2 0,2z"/>
      <path class="fil77" d="M425 706c-1,0 -1,-1 -1,-2 0,-1 0,-2 0,-2 1,0 1,1 1,2 0,1 0,2 0,2 0,0 0,0 0,0z"/>
      <path class="fil77" d="M429 696c0,0 -1,0 -1,-1 0,-1 0,-2 1,-2 0,0 0,0 0,0 0,0 0,1 0,2 0,1 0,1 0,1 0,0 0,0 0,0z"/>
      <path class="fil77" d="M433 700c0,0 -1,-1 -1,-3 -1,-1 -1,-2 -1,-2 0,0 0,0 0,0 0,0 1,1 1,2 1,2 1,3 1,3 0,0 0,0 0,0z"/>
      <path class="fil77" d="M431 704c0,0 -1,-1 -1,-2 0,-1 0,-2 0,-2 0,0 0,0 0,0 0,0 1,1 1,2 0,1 0,2 0,2 0,0 0,0 0,0z"/>
      <path class="fil77" d="M435 707c0,0 -1,-1 -1,-2 -1,-2 -1,-3 -1,-3 0,0 0,0 0,0 0,0 1,1 1,2 1,2 1,3 1,3 0,0 0,0 0,0z"/>
      <path class="fil77" d="M439 702c0,0 -1,-1 -2,-3 -2,-2 -3,-3 -3,-3 0,0 0,0 0,0 0,0 2,1 3,3 2,2 2,3 2,3 0,0 0,0 0,0z"/>
      <path class="fil77" d="M441 700c0,0 -1,-1 -2,-1 0,-1 -1,-1 -1,-1 0,0 0,0 0,0 1,0 1,0 2,0 1,1 1,2 1,2 0,0 0,0 0,0z"/>
      <path class="fil77" d="M438 705c0,0 0,0 -1,-1 0,-1 -1,-1 0,-1 0,0 0,0 0,0 0,0 0,0 1,1 0,0 1,1 0,1 0,0 0,0 0,0z"/>
      <path class="fil77" d="M433 708c-1,0 -1,0 -1,0 0,-1 0,-1 0,-1 0,0 0,0 0,0 0,0 1,0 1,0 0,1 0,1 0,1 0,0 0,0 0,0z"/>
      <path class="fil77" d="M433 691c0,0 0,0 0,0 -1,-1 -2,-1 -2,-1 0,0 1,0 1,0 0,0 1,0 1,0 0,0 1,0 1,0 0,1 0,1 -1,1z"/>
      <path class="fil77" d="M433 687c0,0 0,0 0,0 0,0 0,0 0,0 0,0 0,0 0,0 0,0 0,0 0,0z"/>
      <path class="fil77" d="M436 689c0,0 0,0 0,0 0,0 0,0 0,0 0,0 0,0 1,0 0,0 -1,0 -1,0z"/>
      <path class="fil77" d="M440 692c0,0 0,0 0,0 0,0 -1,0 -1,0 0,0 1,0 1,0 0,0 0,0 0,0 1,0 1,0 1,0 0,0 0,0 -1,0z"/>
      <path class="fil77" d="M444 694c0,0 0,0 0,0 0,0 0,0 0,0l1 0c0,0 0,0 0,0 0,0 0,0 -1,0z"/>
      <path class="fil77" d="M419 659c-5,-3 -8,-6 -11,-11 -2,-4 -3,-8 -2,-12 0,-6 2,-12 6,-17 1,2 1,4 2,6 -2,3 -3,6 -4,9 0,0 0,0 0,0 0,0 0,0 0,1 0,3 1,7 2,11 2,2 4,5 6,7 0,2 1,4 1,6z"/>
      <path class="fil78" d="M418 653c-2,-2 -4,-5 -6,-7 -1,-4 -2,-8 -2,-11 1,0 3,0 5,0 1,1 1,3 1,5 -1,0 -2,0 -2,0 0,0 0,1 1,1 0,0 1,-1 1,-1 0,1 0,2 1,3 -1,0 -1,0 -1,0 -1,1 -2,1 -1,1 0,0 0,0 0,0 0,0 1,0 1,0 0,0 1,0 1,0 0,3 0,6 1,9zm-4 -16c0,0 0,0 -1,0 0,1 0,1 0,1 0,0 0,0 0,0 0,0 1,0 1,0 0,0 0,0 0,0 0,-1 0,-1 0,-1zm-4 -3c1,-3 2,-6 4,-9 0,3 1,6 1,9 0,0 -1,0 -2,0 -1,0 -2,0 -3,0z"/>
      <path class="fil77" d="M415 635c-2,0 -4,0 -5,0 0,-1 0,-1 0,-1 0,0 0,0 0,0 1,0 2,0 3,0 1,0 2,0 2,0 0,0 0,0 0,1z"/>
      <path class="fil77" d="M415 641c-1,0 -1,-1 -1,-1 0,0 1,0 2,0 0,0 0,0 0,0 0,0 -1,1 -1,1z"/>
      <path class="fil77" d="M415 644c0,0 0,0 0,0 -1,0 0,0 1,-1 0,0 0,0 1,0 0,0 0,1 0,1 0,0 -1,0 -1,0 0,0 -1,0 -1,0z"/>
      <path class="fil77" d="M413 638c0,0 0,0 0,0 0,0 0,0 0,-1 1,0 1,0 1,0 0,0 0,0 0,1 0,0 0,0 0,0 0,0 -1,0 -1,0z"/>
      <path class="fil48" d="M682 641c0,0 0,0 0,0 -1,0 -2,-1 -3,-1 0,-1 0,-1 -1,-1 -1,-2 -3,-4 -3,-7 0,-3 3,-6 6,-9 2,-2 3,-4 5,-6 0,-1 1,-2 1,-3 1,-2 1,-3 1,-4 0,0 0,-1 0,-1 2,4 5,8 6,13 1,4 1,8 -1,12 -1,2 -2,3 -3,4 1,-1 1,-2 1,-2 0,-1 -1,-1 -1,-1 0,0 -1,1 -2,2 -1,1 -1,2 -1,3 -1,0 -1,0 -2,0 -1,0 -2,1 -3,1z"/>
      <path class="fil79" d="M679 640c0,0 0,-1 -1,-1 -5,-4 -4,-12 1,-17 3,-3 6,-5 8,-10 1,-2 1,-4 0,-5 1,0 1,1 1,2 0,0 0,1 0,1 0,1 0,2 -1,4 0,1 -1,2 -1,3 -2,2 -3,4 -5,6 -3,3 -6,6 -6,9 0,3 2,5 3,7 1,0 1,0 1,1z"/>
      <path class="fil79" d="M687 640c0,-1 0,-2 1,-3 1,-1 2,-2 2,-2 0,0 1,0 1,1 0,0 0,1 -1,2 0,0 0,0 -1,0 0,1 -1,1 -2,2z"/>
      <path class="fil80" d="M301 310c-3,0 -5,-3 -7,-5 -3,-3 -5,-7 -5,-11 0,-9 9,-21 15,-28 -4,4 -2,18 0,22 3,3 6,5 7,9 1,3 -1,5 -3,8 -1,2 -3,4 -6,4 0,1 -1,1 -1,1z"/>
      <path class="fil49" d="M196 318c1,0 2,-3 4,-9 1,-2 1,-5 2,-9 0,-4 1,-8 0,-12 -1,-4 -3,-8 -5,-11 -3,-3 -6,-5 -8,-6 -5,-3 -9,-3 -9,-3 0,1 4,1 8,4 4,3 10,9 11,17 2,7 0,15 -1,20 -1,5 -2,9 -2,9z"/>
      <path class="fil49" d="M189 308c0,0 -1,-1 -2,-4 0,-3 0,-7 1,-12 1,-4 4,-7 6,-9 2,-2 4,-3 4,-3 0,-1 -2,-1 -5,1 -3,2 -6,6 -7,11 -1,4 -1,9 0,12 1,4 3,5 3,4z"/>
      <path class="fil49" d="M302 309c0,0 1,0 3,-1 2,-1 4,-2 6,-6 1,-1 1,-3 1,-6 -1,-2 -2,-4 -4,-6 -1,-2 -3,-3 -4,-5 -1,-2 -1,-5 -1,-7 1,-10 4,-19 7,-26 2,-6 5,-10 4,-10 0,0 -3,3 -6,10 -3,6 -7,15 -7,26 0,3 0,5 1,8 1,2 3,4 5,6 1,1 3,3 3,5 0,1 0,3 -1,5 -1,3 -3,4 -5,5 -1,1 -2,2 -2,2z"/>
      <path class="fil49" d="M296 304c1,0 0,-2 -1,-3 -2,-1 -3,-2 -3,-2 -1,0 -1,2 1,4 1,1 3,2 3,1z"/>
      <path class="fil49" d="M290 315c1,-1 -3,-4 -8,-5 -5,-1 -9,0 -9,1 0,1 4,1 9,2 4,1 8,2 8,2z"/>
      <path class="fil49" d="M263 289c1,0 3,-6 4,-13 2,-7 3,-13 2,-13 -1,-1 -4,5 -5,12 -2,7 -2,13 -1,14z"/>
      <path class="fil49" d="M324 299c1,1 4,-4 6,-11 2,-6 2,-12 1,-12 -1,0 -3,5 -5,11 -1,7 -3,12 -2,12z"/>
      <path class="fil49" d="M289 247c1,-1 -1,-3 -4,-5 -3,-2 -8,-4 -13,-5 -6,0 -11,1 -15,2 -3,1 -5,3 -5,4 1,2 9,0 19,1 9,1 17,4 18,3z"/>
      <path class="fil49" d="M354 263c0,-1 0,-3 -3,-6 -2,-2 -6,-5 -11,-7 -6,-1 -11,0 -14,1 -3,1 -5,2 -5,3 1,2 9,1 17,4 8,2 14,6 16,5z"/>
     </g>
    </g>
   </g>
  </g>
  <path class="fil81" d="M500 28c269,0 488,212 488,472 0,260 -219,472 -488,472 -269,0 -488,-212 -488,-472 0,-260 219,-472 488,-472z"/>
 </g>
</svg>
