<?xml version="1.0" encoding="UTF-8"?>
<!DOCTYPE svg PUBLIC "-//W3C//DTD SVG 1.1//EN" "http://www.w3.org/Graphics/SVG/1.1/DTD/svg11.dtd">
<!-- Creator: CorelDRAW X7 -->
<svg xmlns="http://www.w3.org/2000/svg" xml:space="preserve" width="1000px" height="1000px" version="1.1" style="shape-rendering:geometricPrecision; text-rendering:geometricPrecision; image-rendering:optimizeQuality; fill-rule:evenodd; clip-rule:evenodd"
viewBox="0 0 1000 1000"
 xmlns:xlink="http://www.w3.org/1999/xlink">
 <defs>
  <style type="text/css">
   <![CDATA[
    .str0 {stroke:black;stroke-width:2.08347}
    .fil15 {fill:none}
    .fil5 {fill:#FEFEFE}
    .fil6 {fill:#F7ADAF}
    .fil2 {fill:#F7A9AB}
    .fil4 {fill:#F59393}
    .fil9 {fill:#F492A4}
    .fil10 {fill:#F7F5BD}
    .fil13 {fill:#F5F091}
    .fil7 {fill:#DF6F7F}
    .fil14 {fill:#A6ACD6}
    .fil12 {fill:#A0A5D2}
    .fil11 {fill:#707EBC}
    .fil1 {fill:#303656}
    .fil8 {fill:#272A39}
    .fil3 {fill:#2D304A}
    .fil0 {fill:#A6D5DE}
   ]]>
  </style>
   <clipPath id="id0">
    <path d="M500 28c268,0 486,212 486,472 0,260 -218,472 -486,472 -268,0 -486,-212 -486,-472 0,-260 218,-472 486,-472z"/>
   </clipPath>
 </defs>
 <g id="Layer_x0020_1">
  <metadata id="CorelCorpID_0Corel-Layer"/>
  <g>
  </g>
  <g style="clip-path:url(#id0)">
   <g>
    <g id="_2821132184640">
     <rect class="fil0 str0" x="-164" y="-246" width="1327" height="1491"/>
     <g>
      <path class="fil1" d="M548 228c-2,-19 -12,-45 -20,-54 -30,-35 -68,-58 -138,-63 -137,-18 -153,260 -153,260 0,0 171,57 326,73 0,0 -3,-175 -15,-216z"/>
      <path class="fil1" d="M548 228l2 0c-1,-10 -4,-21 -8,-32 -2,-5 -4,-9 -6,-14 -2,-4 -4,-7 -6,-9 -15,-18 -33,-32 -55,-43 -22,-11 -50,-19 -85,-21l0 2 0 -2c-4,-1 -8,-1 -12,-1 -16,0 -31,4 -43,11 -23,13 -40,35 -53,61 -20,39 -32,87 -39,125 -6,38 -8,66 -8,66l0 2 1 0c0,0 172,57 327,73l2 0 0 -2c0,0 -1,-44 -3,-93 -1,-24 -3,-50 -5,-72 0,-11 -2,-21 -3,-30 -1,-9 -2,-16 -4,-21l-2 0 2 0 -2 0 -1 1c1,5 2,12 3,21 5,30 7,79 9,119 1,21 1,39 1,53 1,7 1,12 1,16 0,4 0,6 0,6l2 0 0 -2c-77,-8 -158,-26 -220,-42 -32,-8 -58,-16 -76,-21 -9,-3 -17,-6 -22,-7 -2,-1 -4,-2 -5,-2 -2,0 -2,-1 -2,-1l-1 2 2 0c0,0 0,-1 0,-3 1,-14 7,-78 27,-139 10,-30 24,-60 42,-82 9,-10 19,-19 31,-26 12,-6 24,-9 39,-9 4,0 8,0 12,1l0 0 0 0c35,2 61,9 83,20 22,11 39,25 54,42 2,2 4,5 6,9 6,12 12,30 14,45l0 0 0 0 1 -1z"/>
      <path class="fil1" d="M533 186c30,83 38,171 39,258 0,1 2,1 2,0 -2,-87 -9,-176 -39,-258 -1,-1 -2,-1 -2,0z"/>
      <path class="fil2" d="M415 693l34 9c15,4 28,-8 26,-22l-25 -258c0,0 -34,-46 -32,-61 1,-21 33,11 33,11 0,0 81,-106 93,-84 15,29 -2,92 -27,124 44,125 121,255 129,346 5,63 -33,104 -94,87l-161 -97 24 -55z"/>
      <path class="fil3" d="M451 372c0,-1 18,-25 39,-47 -21,23 -39,46 -39,47z"/>
      <path class="fil4" d="M464 423c-4,0 -9,0 -14,-1l0 0 1 -50c0,0 0,0 0,0 0,-1 18,-24 39,-47 18,-20 38,-38 49,-38 2,0 3,0 5,1 0,0 3,135 -80,135z"/>
      <path class="fil5" d="M535 347c-10,29 -41,44 -69,34 -28,-10 -43,-41 -33,-69 9,-29 40,-44 69,-34 28,10 43,41 33,69z"/>
      <path class="fil6" d="M360 252c0,2 -2,3 -5,2 -8,-3 -20,-6 -31,16 -10,22 10,35 23,40 4,2 7,5 8,9 5,11 16,33 9,58 -15,51 -45,91 -45,91 0,0 87,56 137,42 0,0 -1,-133 15,-134 28,-1 65,-7 77,-102 10,-89 -59,-106 -76,-108 -13,-3 -79,-19 -112,86z"/>
      <path class="fil1" d="M469 377c0,0 -8,4 -58,-25 -11,-6 46,76 49,61 4,-25 9,-36 9,-36z"/>
      <path class="fil1" d="M538 206c0,0 -114,106 -181,48 -36,-30 79,-189 181,-48z"/>
      <path class="fil1" d="M359 255c9,10 25,17 38,21 17,4 35,-1 51,-7 35,-13 65,-36 91,-62 1,-1 -1,-2 -1,-1 -24,24 -51,46 -83,59 -16,7 -37,14 -54,10 -14,-3 -31,-10 -41,-22 -1,0 -2,1 -1,2z"/>
      <path class="fil7" d="M337 272c0,0 22,-23 26,19l-26 -19z"/>
      <path class="fil7" d="M514 301l-10 18 10 3c2,1 4,-1 4,-3l-4 -18z"/>
      <path class="fil8" d="M493 273c-5,3 3,-11 9,-12 6,-2 12,1 13,7 0,0 -11,-2 -22,5z"/>
      <path class="fil8" d="M547 288c-5,-8 -15,-16 -15,-16 4,-4 10,-3 13,1 1,1 3,5 3,8 0,0 0,9 -1,7z"/>
      <path class="fil9" d="M431 308c2,13 14,23 27,22 13,-1 23,-13 21,-26 -1,-14 -13,-23 -26,-22 -13,1 -23,13 -22,26z"/>
      <path class="fil9" d="M525 348c-3,-3 0,-19 2,-25 3,-7 9,-13 14,-14 0,0 -4,20 -16,39z"/>
      <path class="fil7" d="M521 328l0 0c0,0 -1,1 -3,3 -1,1 -4,2 -7,2 -1,0 -3,0 -4,0 -6,-2 -9,-5 -11,-7 -1,-1 -2,-3 -2,-3 0,-1 -1,-1 -1,-1l0 -1 0 0c0,0 -1,0 -1,0 0,0 -1,1 -1,1 1,0 1,2 4,5 2,3 6,6 11,7 2,1 3,1 5,1 4,0 7,-2 9,-3 2,-2 3,-3 3,-3 0,-1 0,-1 -1,-2 0,0 -1,0 -1,1z"/>
      <path class="fil8" d="M522 300c0,1 0,2 1,3 0,1 1,3 3,3 1,1 2,1 3,1 2,0 3,-1 4,-2 1,-1 1,-2 1,-2 0,0 0,-1 0,-1 -1,0 -1,0 -2,0l1 1 -1 -1 0 0 1 1 -1 -1c0,0 0,1 0,2 -1,0 -2,1 -3,1 -1,0 -2,0 -2,0 -2,-1 -2,-2 -3,-3 0,0 0,-1 0,-1l0 0 0 -1 0 0c0,0 -1,0 -1,0 -1,0 -1,0 -1,0z"/>
      <path class="fil8" d="M507 297l0 0c0,0 0,1 -1,2 -1,0 -2,1 -4,1 0,0 -1,0 -1,0 -2,-1 -4,-2 -5,-3 0,-1 -1,-2 -1,-2 0,0 0,0 0,-1l0 0 0 0c0,0 -1,0 -1,0 -1,0 -1,0 -1,1 0,0 1,1 2,3 1,1 3,3 5,3 1,0 2,1 2,1 2,0 4,-1 5,-2 1,-1 2,-2 2,-2 0,0 0,-1 -1,-1 0,0 -1,0 -1,0z"/>
      <path class="fil8" d="M528 306l2 3c0,1 1,1 1,0 1,0 1,0 1,-1l-2 -3c0,0 -1,0 -1,0 -1,0 -1,1 -1,1z"/>
      <path class="fil8" d="M532 305l3 2c0,0 0,0 1,0 0,-1 0,-1 0,-1l-3 -2c0,-1 -1,-1 -1,0 0,0 0,1 0,1z"/>
      <path class="fil8" d="M494 295l-3 2c-1,0 -1,1 -1,1 0,0 1,1 1,0l4 -1c0,0 1,-1 0,-1 0,-1 0,-1 -1,-1z"/>
      <path class="fil8" d="M496 298l-2 2c-1,0 -1,1 -1,1 1,1 1,1 2,0l2 -2c1,0 1,-1 0,-1 0,0 -1,0 -1,0z"/>
      <path class="fil5" d="M458 451c-36,-3 -94,39 -92,97 4,118 25,191 25,191 0,0 169,-67 169,-73 -19,-151 -31,-202 -102,-215z"/>
      <path class="fil5" d="M603 909c-1,-3 -48,-198 -57,-238 -10,-43 -57,-142 -73,-181l0 0 -12 -73 -105 -33 -47 92c-20,2 -56,25 -56,25 -24,67 1,348 -1,405 235,0 351,3 351,3z"/>
      <path class="fil1" d="M572 907c0,0 -191,-426 -260,-426l-58 425 318 1z"/>
      <path class="fil1" d="M572 907l1 -1c0,0 -47,-106 -103,-213 -29,-53 -59,-106 -87,-146 -13,-20 -27,-37 -39,-49 -5,-6 -11,-10 -17,-14 -5,-3 -10,-5 -15,-5l-2 0 -59 429 324 1 -2 -3 -1 1 0 -2 -316 -1 58 -422 -2 -1 0 2c4,0 8,2 13,5 10,5 21,16 33,31 21,25 45,63 68,104 36,62 72,133 99,189 13,28 25,52 33,69 3,8 7,15 9,20 2,5 3,7 3,7l2 -1 0 -2 0 2z"/>
      <polygon class="fil10" points="913,940 85,940 85,801 913,801 "/>
      <path class="fil6" d="M695 810c-142,16 -367,18 -479,5 -62,-7 -74,-75 -40,-157 20,-49 57,-142 57,-142l127 111 -16 32c-7,13 2,29 17,30l257 26 59 7c0,0 110,9 128,83 0,0 -96,3 -110,5z"/>
      <path class="fil5" d="M424 460c-17,-32 -75,-49 -123,-13 -75,30 -143,196 -143,196 0,0 207,50 209,44 62,-136 85,-161 57,-227z"/>
      <path class="fil5" d="M374 258l-15 -6c19,-42 42,-95 79,-124 11,-9 32,-14 47,-12 24,5 35,16 39,25 4,8 4,18 1,26l-14 -14c1,-2 1,0 -1,-5 -4,-8 -14,-14 -28,-16 -10,-2 -26,2 -34,9 -34,26 -56,77 -74,117z"/>
      <path class="fil5" d="M404 313c-9,26 -37,39 -63,30 -26,-9 -39,-37 -30,-63 9,-25 37,-39 63,-30 25,9 39,37 30,63z"/>
      <path class="fil5" d="M393 309c-7,20 -29,30 -48,23 -20,-7 -30,-28 -23,-48 7,-19 28,-29 48,-23 19,7 29,29 23,48z"/>
      <path class="fil1" d="M393 309l-1 0c-6,15 -20,24 -35,24 -4,0 -8,0 -12,-2 -15,-5 -24,-19 -24,-34 0,-4 0,-8 2,-12 5,-15 19,-25 34,-25 4,0 8,1 12,2 15,6 25,20 25,35 0,4 -1,8 -2,12l1 0 0 0c2,-4 3,-8 3,-12 0,-16 -10,-31 -26,-36 -4,-2 -9,-3 -13,-3 -16,0 -30,10 -36,26 -1,4 -2,9 -2,13 0,16 10,30 26,36 4,1 8,2 12,2 16,0 31,-10 36,-26l0 0z"/>
      <path class="fil1" d="M363 348c-8,31 3,62 16,90 14,31 36,57 58,83 22,26 44,54 54,87 8,31 4,66 -19,89 -2,3 2,7 4,4 19,-19 27,-47 24,-74 -4,-32 -21,-61 -40,-85 -21,-29 -47,-54 -65,-85 -18,-30 -36,-71 -27,-107 1,-4 -4,-5 -5,-2z"/>
      <path class="fil1" d="M495 384c10,35 9,71 -2,106 -10,29 -25,59 -12,90 1,3 6,2 5,-1 -14,-35 8,-68 16,-101 8,-31 7,-64 -1,-96 -1,-3 -6,-1 -6,2z"/>
      <polygon class="fil5" points="510,392 490,395 488,381 508,378 "/>
      <polygon class="fil5" points="375,354 355,357 353,343 373,340 "/>
      <path class="fil10" d="M515 134c3,1 5,3 7,5 2,2 4,4 5,7 1,3 1,6 1,9 0,3 -1,5 -3,8 -1,-3 -1,-5 -2,-8 0,-2 -1,-5 -2,-7 -1,-2 -1,-5 -2,-7 -1,-2 -2,-4 -4,-7z"/>
      <path class="fil10" d="M512 158c5,2 10,6 14,10 4,4 8,9 10,14 3,6 5,11 6,17 2,5 3,11 3,17 -3,-5 -5,-10 -7,-16 -2,-5 -4,-10 -7,-15 -2,-5 -5,-10 -8,-14 -3,-5 -7,-9 -11,-13z"/>
      <path class="fil10" d="M554 276c2,14 4,27 5,40 1,6 1,13 2,20 0,6 0,13 1,19 0,7 0,14 0,20 0,7 0,13 0,20 0,13 -1,27 -3,40 -1,-14 -1,-27 -2,-40l-1 -39 -1 -40c-1,-13 -1,-26 -1,-40z"/>
      <path class="fil10" d="M514 419c12,23 24,47 36,71 5,12 11,24 17,36 5,13 11,25 16,37l8 18 8 19 7 18 7 19c9,25 18,50 25,76 -9,-25 -19,-50 -29,-74l-8 -19 -8 -18 -7 -18 -8 -19 -8 -18 -8 -18 -16 -37c-11,-24 -22,-49 -32,-73z"/>
      <path class="fil10" d="M684 725c12,1 24,3 36,6 6,1 12,3 18,5 6,2 12,5 17,7 6,3 11,7 16,10 5,4 10,8 14,13 8,9 15,21 17,33 -5,-11 -12,-21 -20,-30 -4,-4 -9,-8 -14,-11 -5,-4 -10,-7 -15,-9 -6,-3 -11,-6 -17,-8 -5,-2 -11,-4 -17,-6 -11,-3 -23,-6 -35,-10z"/>
      <path class="fil5" d="M459 87c0,4 -4,7 -8,7 -4,0 -8,-3 -8,-7 0,-5 4,-8 8,-8 4,0 8,3 8,8z"/>
      <path class="fil5" d="M591 172l-1 0c0,4 -2,7 -4,10 -3,2 -6,4 -10,4 -4,0 -7,-2 -10,-4 -2,-3 -4,-6 -4,-10 0,-4 2,-7 4,-10 3,-2 6,-4 10,-4 4,0 7,2 10,4 2,3 4,6 4,10l1 0 1 0c0,-9 -7,-16 -16,-16 -9,0 -16,7 -16,16 0,8 7,16 16,16 9,0 16,-8 16,-16l-1 0z"/>
      <path class="fil5" d="M282 421l-1 0c0,3 -3,6 -6,6 -3,0 -5,-3 -5,-6 0,-3 2,-5 5,-5 3,0 6,2 6,5l1 0 1 0c0,-4 -4,-7 -8,-7 -4,0 -7,3 -7,7 0,4 3,8 7,8 4,0 8,-4 8,-8l-1 0z"/>
      <path class="fil5" d="M632 480l-1 0c0,5 -2,9 -5,12 -3,3 -7,5 -12,5 -5,0 -9,-2 -12,-5 -3,-3 -5,-7 -5,-12 0,-4 2,-9 5,-12 3,-3 7,-5 12,-5 5,0 9,2 12,5 3,3 5,8 5,12l1 0 1 0c0,-10 -9,-19 -19,-19 -11,0 -19,9 -19,19 0,11 8,19 19,19 10,0 19,-8 19,-19l-1 0z"/>
      <path class="fil5" d="M574 462c0,3 -3,5 -6,5 -3,0 -5,-2 -5,-5 0,-4 2,-6 5,-6 3,0 6,2 6,6z"/>
      <polygon class="fil11" points="226,455 87,541 87,452 "/>
      <polygon class="fil12" points="88,405 226,405 226,455 86,456 "/>
      <polygon class="fil5" points="88,406 225,406 225,454 86,455 86,457 227,456 227,404 88,404 "/>
      <path class="fil5" d="M160 404l0 -1 0 0c-7,0 -12,-2 -16,-7 -5,-4 -7,-9 -7,-16l0 -42 46 0 0 42c0,7 -3,12 -7,16 -4,5 -10,7 -16,7l0 1 0 1c14,0 25,-11 25,-25l0 -44 -50 0 0 44c0,14 11,25 25,25l0 0 0 -1z"/>
      <path class="fil13" d="M144 336c-1,-14 -2,-27 3,-40 2,-4 4,-7 8,-10 4,-2 9,-3 12,0 3,2 4,6 4,10 0,3 -1,7 -1,10 0,2 0,3 1,4 1,2 5,2 7,1 2,-2 5,-3 8,-3 3,1 4,5 5,8 0,8 -4,16 -11,21l-36 -1z"/>
      <polygon class="fil14" points="915,590 726,590 726,61 915,61 "/>
      <polygon class="fil5" points="915,589 727,589 727,62 915,62 915,60 726,60 726,591 915,591 "/>
      <polygon class="fil10" points="914,625 703,625 703,582 914,582 "/>
      <polygon class="fil5" points="724,435 914,437 914,435 724,433 "/>
      <polygon class="fil5" points="724,197 914,197 914,195 724,195 "/>
     </g>
    </g>
   </g>
  </g>
  <path class="fil15" d="M500 28c268,0 486,212 486,472 0,260 -218,472 -486,472 -268,0 -486,-212 -486,-472 0,-260 218,-472 486,-472z"/>
 </g>
</svg>
