<?xml version="1.0" encoding="UTF-8"?>
<!DOCTYPE svg PUBLIC "-//W3C//DTD SVG 1.1//EN" "http://www.w3.org/Graphics/SVG/1.1/DTD/svg11.dtd">
<!-- Creator: CorelDRAW X7 -->
<svg xmlns="http://www.w3.org/2000/svg" xml:space="preserve" width="1000px" height="1000px" version="1.1" style="shape-rendering:geometricPrecision; text-rendering:geometricPrecision; image-rendering:optimizeQuality; fill-rule:evenodd; clip-rule:evenodd"
viewBox="0 0 1000 1000"
 xmlns:xlink="http://www.w3.org/1999/xlink">
 <defs>
  <style type="text/css">
   <![CDATA[
    .str0 {stroke:black;stroke-width:2.08347}
    .fil32 {fill:none}
    .fil24 {fill:#FEFEFE}
    .fil26 {fill:#FCC27A}
    .fil28 {fill:#F9A553}
    .fil7 {fill:#F8A366}
    .fil27 {fill:#F89C46}
    .fil25 {fill:#D8D9E2}
    .fil17 {fill:#CEA174}
    .fil23 {fill:#C59266}
    .fil18 {fill:#B78358}
    .fil6 {fill:#B69DC5}
    .fil12 {fill:#B4B7C8}
    .fil1 {fill:#A7D5DE}
    .fil14 {fill:#A3A5B8}
    .fil29 {fill:#A3A2B8}
    .fil15 {fill:#6E564E}
    .fil5 {fill:#9F83B5}
    .fil13 {fill:#93CBD8}
    .fil10 {fill:#97BFC7}
    .fil16 {fill:#5E4A43}
    .fil9 {fill:#83BDCF}
    .fil3 {fill:#71B9C9}
    .fil21 {fill:#876C9F}
    .fil22 {fill:#82679B}
    .fil20 {fill:#65A5BD}
    .fil8 {fill:#66678D}
    .fil31 {fill:#5F6084}
    .fil11 {fill:#5D5D7D}
    .fil19 {fill:#2E3030}
    .fil30 {fill:#292A2C}
    .fil2 {fill:#222124}
    .fil4 {fill:#31304F}
    .fil0 {fill:#A7D5DE}
   ]]>
  </style>
   <clipPath id="id0">
    <path d="M500 28c-268,0 -486,212 -486,472 0,260 218,472 486,472 268,0 486,-212 486,-472 0,-260 -218,-472 -486,-472z"/>
   </clipPath>
 </defs>
 <g id="Layer_x0020_1">
  <metadata id="CorelCorpID_0Corel-Layer"/>
  <path class="fil0" d="M500 28c-268,0 -486,212 -486,472 0,260 218,472 486,472 268,0 486,-212 486,-472 0,-260 -218,-472 -486,-472z"/>
  <g style="clip-path:url(#id0)">
   <g id="_2821132188800">
    <g>
     <rect class="fil1 str0" x="-1012" y="-702" width="3024" height="2403"/>
     <g>
      <polygon class="fil2" points="233,441 233,441 245,430 245,430 233,441 "/>
      <polygon class="fil3" points="233,441 245,430 245,432 "/>
      <polygon class="fil4" points="233,441 233,441 245,430 "/>
      <polygon class="fil5" points="304,716 301,731 300,735 298,744 297,749 293,771 234,771 229,749 228,744 227,735 226,731 223,716 "/>
      <polygon class="fil6" points="300,735 227,735 226,731 301,731 "/>
      <polygon class="fil6" points="297,749 229,749 228,744 298,744 "/>
      <path class="fil7" d="M263 696l0 0c2,0 3,-1 4,-1 17,-11 35,-22 48,-38 4,-5 8,-10 10,-17 1,-6 2,-13 -1,-18 -1,-3 -2,-5 -4,-6 -6,-5 -14,-3 -22,-2 9,-8 15,-19 17,-30 2,-9 0,-21 -9,-25 -5,-3 -12,-2 -17,0 -5,3 -10,7 -14,11 2,-8 5,-15 5,-23 1,-8 -1,-17 -7,-23 -7,-8 -19,-9 -26,0 -7,8 -11,20 -9,30 -7,-3 -15,-6 -21,-3 -6,1 -9,6 -11,11 -2,5 -2,11 -1,16 2,13 10,25 21,32 -9,-2 -18,-2 -25,3 -5,4 -7,10 -7,16 0,6 2,12 5,18 12,23 37,37 60,48 2,1 3,1 4,1z"/>
      <polygon class="fil8" points="261,518 261,716 265,716 265,518 "/>
      <polygon class="fil9" points="899,667 862,823 865,824 902,668 "/>
      <path class="fil9" d="M807 653l0 0c2,5 38,74 38,166 0,2 0,3 0,5l4 0c0,-2 0,-3 0,-5 0,-96 -39,-167 -39,-167l-3 1z"/>
      <path class="fil9" d="M723 735l0 -1 0 1 0 0 0 -1 0 1 0 -1 0 1c0,0 0,0 0,0l0 -1 0 1c0,0 0,1 1,1 5,1 24,9 46,23 23,14 50,35 71,66l3 -2c-24,-34 -54,-56 -78,-71 -12,-7 -22,-12 -30,-15 -4,-2 -7,-3 -9,-4 -1,0 -2,-1 -3,-1 0,0 0,0 0,0l-1 0c0,0 0,0 0,0l0 0 0 3z"/>
      <path class="fil9" d="M887 723c0,0 58,-40 17,-71 -43,6 -17,71 -17,71z"/>
      <path class="fil9" d="M881 750c2,1 53,0 49,-28 -20,-21 -49,28 -49,28z"/>
      <path class="fil9" d="M834 722c0,0 42,-33 21,-63 -31,2 -21,63 -21,63z"/>
      <path class="fil9" d="M828 700c0,0 11,-52 -21,-50 -20,14 21,50 21,50z"/>
      <path class="fil9" d="M842 759c0,0 -25,-45 -45,-31 -3,20 23,26 45,31z"/>
      <path class="fil9" d="M745 726c0,0 -32,-56 -55,-28 -3,30 55,28 55,28z"/>
      <path class="fil9" d="M813 790c0,0 -40,-20 -45,3 10,24 45,-3 45,-3z"/>
      <path class="fil9" d="M868 806c0,0 50,9 48,-16 -12,-19 -48,16 -48,16z"/>
      <polygon class="fil8" points="743,123 743,136 620,136 620,123 "/>
      <polygon class="fil10" points="627,136 620,136 620,123 627,123 627,123 620,123 620,136 627,136 "/>
      <polygon class="fil11" points="627,136 620,136 620,123 627,123 "/>
      <path class="fil8" d="M615 150l0 0c-3,0 -5,-2 -5,-5l0 -32c0,-2 2,-4 5,-4 3,0 5,2 5,4l0 32c0,3 -2,5 -5,5z"/>
      <path class="fil12" d="M743 129l0 243c-5,1 -10,1 -15,2 -11,2 -23,3 -34,3 -4,-1 -8,-1 -12,-2 -2,0 -4,-1 -6,-1 0,0 0,0 -1,0 -2,0 -5,-1 -8,-1 -2,0 -4,0 -6,0 -3,0 -5,0 -8,0 -5,0 -10,0 -16,0 -6,1 -11,2 -17,3l13 -240 0 0 0 0 6 -7 104 0z"/>
      <polygon class="fil5" points="743,118 743,136 633,136 633,118 "/>
      <polygon class="fil12" points="743,118 743,136 633,136 633,118 "/>
      <path class="fil13" d="M640 373c4,0 8,0 12,0 -4,0 -8,0 -12,0z"/>
      <path class="fil14" d="M637 373c3,-29 9,-102 9,-102l7 102c0,0 -1,0 -1,0 -4,0 -8,0 -12,0 -1,0 -2,0 -3,0z"/>
      <path class="fil13" d="M667 373c-1,0 -3,0 -4,0 1,0 3,0 4,0l0 0z"/>
      <path class="fil14" d="M667 373c-1,0 -3,0 -4,0 -1,0 -2,0 -2,0l0 -53 6 53z"/>
      <path class="fil14" d="M728 374l11 -91 4 38 0 51c-5,1 -10,1 -15,2z"/>
      <path class="fil13" d="M682 375c-1,0 -3,0 -5,-1 2,1 4,1 5,1l0 0z"/>
      <path class="fil14" d="M682 375c-1,0 -3,0 -5,-1 0,0 0,0 -1,0l4 -25 2 26z"/>
      <polygon class="fil14" points="643,136 640,136 640,136 643,136 "/>
      <polygon class="fil13" points="643,118 640,118 640,118 643,118 "/>
      <polygon class="fil14" points="643,136 640,136 640,118 643,118 "/>
      <polygon class="fil14" points="689,136 685,136 685,136 689,136 "/>
      <polygon class="fil13" points="689,118 685,118 685,118 689,118 "/>
      <polygon class="fil14" points="689,136 685,136 685,118 689,118 "/>
      <polygon class="fil13" points="649,118 647,118 647,118 649,118 "/>
      <polygon class="fil14" points="649,136 647,136 647,136 649,136 "/>
      <polygon class="fil14" points="649,136 647,136 647,118 649,118 "/>
      <polygon class="fil13" points="671,118 670,118 670,118 671,118 "/>
      <polygon class="fil14" points="671,136 670,136 670,136 671,136 "/>
      <polygon class="fil14" points="671,136 670,136 670,118 671,118 "/>
      <polygon class="fil13" points="667,118 665,118 665,118 667,118 "/>
      <polygon class="fil14" points="667,136 665,136 665,136 667,136 "/>
      <polygon class="fil14" points="667,136 665,136 665,118 667,118 "/>
      <polygon class="fil13" points="695,118 693,118 693,118 695,118 "/>
      <polygon class="fil14" points="695,136 693,136 693,136 695,136 "/>
      <polygon class="fil14" points="695,136 693,136 693,118 695,118 "/>
      <polygon class="fil14" points="654,136 652,136 652,136 654,136 "/>
      <polygon class="fil14" points="654,136 652,136 652,122 654,122 "/>
      <polygon class="fil14" points="660,136 658,136 658,136 660,136 "/>
      <polygon class="fil14" points="660,136 658,136 658,125 660,125 "/>
      <polygon class="fil14" points="701,136 699,136 699,136 701,136 "/>
      <polygon class="fil14" points="701,136 699,136 699,125 701,125 "/>
      <polygon class="fil13" points="720,118 716,118 716,118 720,118 "/>
      <polygon class="fil14" points="720,136 716,136 716,136 720,136 "/>
      <polygon class="fil14" points="720,136 716,136 716,118 720,118 "/>
      <polygon class="fil13" points="728,118 725,118 725,118 728,118 "/>
      <polygon class="fil14" points="728,136 725,136 725,136 728,136 "/>
      <polygon class="fil14" points="728,136 725,136 725,118 728,118 "/>
      <polygon class="fil13" points="712,118 710,118 710,118 712,118 "/>
      <polygon class="fil14" points="712,136 710,136 710,136 712,136 "/>
      <polygon class="fil14" points="712,136 710,136 710,118 712,118 "/>
      <polygon class="fil14" points="740,136 738,136 738,136 740,136 "/>
      <polygon class="fil14" points="740,136 738,136 738,125 740,125 "/>
      <path class="fil9" d="M347 771l3 -126c1,-44 30,-84 73,-99 43,-16 104,-23 176,8 36,15 59,51 59,90l0 133 -311 -6z"/>
      <path class="fil15" d="M634 521c-1,3 -4,5 -8,7 -2,1 -4,1 -7,2 -3,0 -7,-1 -9,-3 4,11 -1,24 -9,33 -1,1 -2,2 -3,3 -3,3 -7,6 -12,8 -16,8 -36,7 -54,7 -29,-2 -58,-3 -87,-4 -10,-1 -20,-1 -29,-5 -9,-5 -16,-14 -15,-24 -2,1 -5,2 -7,2 -2,0 -4,0 -7,-1 -2,-1 -4,-1 -6,-3 -3,-1 -5,-3 -7,-6 -3,-3 -5,-7 -5,-12 -1,-9 4,-19 11,-26 7,-7 16,-13 22,-21 25,-29 18,-71 29,-105 0,-1 0,-1 0,-2 6,-19 19,-35 37,-44 17,-9 37,-13 56,-10 11,2 26,9 30,20l1 2c8,0 16,0 22,3 5,4 8,10 11,15 11,27 11,57 20,84 3,10 8,19 13,27 5,8 10,16 14,25 4,9 4,19 -1,28z"/>
      <path class="fil16" d="M393 547c-2,0 -4,-1 -6,-1 2,-7 5,-13 10,-18 11,-14 32,-17 45,-29 9,-8 15,-18 18,-29 1,-7 2,-14 2,-20 2,0 4,1 6,2 1,10 1,20 -1,30 -4,14 -15,27 -29,34 -7,3 -14,5 -21,8 -10,5 -18,13 -23,23l0 0c0,0 0,0 -1,0z"/>
      <path class="fil16" d="M459 523c4,-4 8,-7 12,-11 8,-9 13,-20 14,-31 1,1 2,1 3,2 1,9 -1,17 -5,25 -2,3 -4,6 -6,8l-4 2c-2,0 -4,1 -7,2 -2,1 -5,2 -7,3z"/>
      <path class="fil16" d="M568 523c-3,-2 -5,-3 -8,-4 -2,-11 -2,-22 -3,-33 0,-6 -2,-12 -4,-18 1,-1 2,-3 3,-5 3,4 5,8 7,13 5,14 -1,31 4,45 1,0 1,1 1,2z"/>
      <path class="fil16" d="M619 530c-4,-2 -7,-5 -10,-7 -7,-6 -11,-15 -13,-23 -3,-9 -4,-17 -6,-26 -1,-5 -2,-10 -4,-15 -2,-6 -5,-11 -9,-16 1,-1 2,-2 3,-3 1,1 1,2 2,2 8,8 13,18 16,29 3,10 5,21 10,31 4,10 10,19 18,26 -2,1 -4,1 -7,2l0 0z"/>
      <path class="fil16" d="M381 543c-3,-1 -5,-3 -7,-6 0,-15 8,-30 20,-40 8,-7 19,-11 28,-18 6,-5 11,-10 14,-17 5,-8 8,-17 9,-27 2,3 4,6 8,9 0,0 0,1 0,1 -1,7 -3,14 -6,21 -4,6 -9,11 -15,15 -6,6 -13,11 -20,16 -8,5 -17,9 -23,17 -7,8 -8,19 -8,29zm66 -123c1,-18 2,-37 8,-53 6,-16 18,-29 34,-35 6,-3 13,-4 20,-4 10,0 20,3 28,9l-2 0c-4,-1 -9,-2 -14,-2 -20,0 -41,10 -52,27 -8,12 -11,26 -13,40 -1,5 -1,10 -1,15 -1,0 -1,0 -2,0 -2,0 -4,1 -6,3z"/>
      <path class="fil16" d="M467 423c-1,-1 -3,-3 -5,-4 0,-1 -1,-1 0,-2 1,-11 3,-22 7,-33 7,-16 19,-31 37,-38 10,-3 21,-4 32,-4l1 -1c-3,1 -6,2 -9,3 -13,5 -27,10 -38,19 -10,9 -17,23 -21,36 -2,5 -3,10 -4,16 0,2 1,5 0,8z"/>
      <path class="fil16" d="M469 418l0 0c0,0 0,0 0,0l0 0c0,0 0,0 0,0zm0 -1c0,0 0,0 0,-1 3,-1 5,-3 7,-5 2,-2 4,-3 6,-5 2,-1 4,-1 6,-2 -3,3 -5,5 -8,7 -2,2 -5,4 -8,5 -1,1 -2,1 -3,1zm16 -14c4,-4 8,-9 12,-14 9,-10 18,-21 26,-32l1 0c-8,17 -20,33 -34,45 -2,0 -4,1 -5,1z"/>
      <path class="fil16" d="M569 418c-1,-6 -2,-13 -1,-20 0,-9 2,-19 0,-27 -1,-5 -3,-9 -6,-13 -2,-2 -6,-8 -9,-9 6,2 12,7 16,12 7,10 7,23 6,35 -1,7 -2,14 -1,21 -2,0 -3,1 -5,1z"/>
      <polygon class="fil17" points="560,519 534,531 534,533 532,533 514,541 500,533 494,533 494,529 473,518 494,511 494,476 534,476 534,511 "/>
      <path class="fil18" d="M517 499l-6 0c-6,0 -12,-1 -17,-3l0 -10c5,3 11,4 17,4l6 0c6,0 12,-1 17,-4l0 10c-5,2 -11,3 -17,3z"/>
      <path class="fil17" d="M472 426c0,0 -23,-20 -27,-1 -5,21 30,29 30,29l-3 -28z"/>
      <path class="fil17" d="M556 426c0,0 23,-20 28,-1 5,21 -31,29 -31,29l3 -28z"/>
      <path class="fil18" d="M470 453c0,-1 -1,-1 -2,-1 -2,-1 -4,-2 -6,-2 -3,-2 -6,-4 -9,-6 -4,-3 -6,-6 -8,-9 0,-2 -1,-4 -1,-6 0,-1 0,-3 1,-4 1,-6 4,-8 8,-8 6,0 13,4 16,7l1 27c0,1 0,1 0,2z"/>
      <path class="fil18" d="M558 453c0,-1 0,-1 0,-2l1 -27c3,-2 11,-7 16,-7 4,0 7,2 9,8 0,1 0,3 0,4 0,4 -2,8 -4,11 -1,1 -2,2 -3,3 -6,5 -14,8 -19,10z"/>
      <path class="fil17" d="M559 419l-1 32c-1,22 -19,39 -41,39l-6 0c-22,0 -40,-17 -41,-39l-1 -30 0 -4c13,-4 26,-9 36,-18 6,-4 10,-10 14,-15 2,-3 3,-6 5,-9 2,-3 3,-8 4,-11 -1,3 -1,7 -1,11 0,2 0,4 1,5 2,3 7,4 9,2 1,-1 2,-2 3,-3 2,-5 3,-9 3,-14 0,3 1,7 3,9 2,3 7,3 8,0 0,3 -1,5 -1,8 0,10 1,20 3,30 1,2 2,5 3,7z"/>
      <path class="fil19" d="M514 411l0 30 1 0 0 -1c0,0 -3,0 -5,1 -1,0 -2,1 -3,2 -1,1 -2,2 -2,4 0,0 0,1 0,1 1,2 2,4 3,4 1,1 3,1 4,1 3,0 5,-1 5,-1 1,0 1,0 1,-1 0,0 -1,0 -1,0l0 0c-1,0 -3,1 -5,1 -1,0 -2,-1 -3,-1 -1,-1 -1,-1 -2,-3 0,-1 0,-1 0,-1 0,-2 0,-2 1,-3 1,-1 3,-2 4,-2 1,0 2,0 2,0 0,0 0,0 1,0l0 0c0,0 0,0 0,-1 1,0 1,0 1,0l0 -30c0,-1 -1,-1 -1,-1 -1,0 -1,0 -1,1z"/>
      <path class="fil15" d="M541 430c0,4 -2,6 -4,6 -2,0 -4,-2 -4,-6 0,-3 2,-6 4,-6 2,0 4,3 4,6z"/>
      <path class="fil15" d="M493 430c0,4 -2,6 -4,6 -3,0 -4,-2 -4,-6 0,-3 1,-6 4,-6 2,0 4,3 4,6z"/>
      <path class="fil19" d="M496 463c0,0 6,5 17,5 5,0 11,-1 18,-5 0,0 0,-1 0,-1 0,-1 -1,-1 -1,-1 -7,4 -12,5 -17,5 -5,0 -9,-1 -12,-2 -1,-1 -2,-1 -3,-2 0,0 -1,0 -1,0l0 -1 0 0c0,0 -1,0 -1,1 -1,0 -1,0 0,1z"/>
      <path class="fil19" d="M523 407l0 0c0,0 6,-3 13,-3 5,0 10,2 16,7 0,0 1,0 1,0 1,-1 1,-1 0,-2 -6,-5 -12,-7 -17,-7 -8,0 -14,4 -14,4 -1,0 -1,1 -1,1 1,1 1,1 2,0z"/>
      <path class="fil19" d="M504 406c0,0 -6,-4 -14,-4 -5,0 -11,2 -17,7l1 2c6,-5 11,-7 16,-7 4,0 7,1 10,2 1,0 2,1 2,1 1,0 1,0 1,0l0 0 0 0 1 -1 0 0z"/>
      <path class="fil5" d="M588 704c11,62 11,62 11,62l-188 11 12 -117 -21 48 -55 -16c5,-11 10,-21 14,-31 10,-21 20,-43 31,-64 4,-9 9,-19 14,-28 4,-7 7,-14 12,-21 4,-5 8,-9 15,-13 10,-6 22,-11 33,-15 3,-1 5,-2 7,-2l1 -1 8 -2c0,0 27,25 64,0 2,0 5,1 7,1 24,7 49,29 57,51 9,25 33,127 33,127 0,0 -49,10 -55,10z"/>
      <path class="fil20" d="M386 703l-15 -4 15 4 0 0zm24 -13l13 -30 -13 30 0 0z"/>
      <polygon class="fil21" points="386,703 371,699 426,633 423,660 410,690 410,690 393,699 "/>
      <path class="fil22" d="M511 534c-18,0 -30,-10 -37,-17l8 -2c0,0 12,11 31,11 9,0 20,-3 33,-11 2,0 5,1 7,1 -16,13 -31,18 -42,18z"/>
      <path class="fil17" d="M588 704l2 12 -109 37c0,0 -56,0 -75,18 224,0 224,0 224,0 0,0 27,-9 20,-43 -7,-34 -7,-34 -7,-34l-55 10z"/>
      <path class="fil23" d="M427 771c-2,0 -4,0 -6,0 7,-5 22,-12 42,-15 0,0 -27,7 -36,15z"/>
      <path class="fil23" d="M446 771c-2,0 -4,0 -6,0 6,-4 19,-10 38,-12 0,0 -24,4 -32,12z"/>
      <path class="fil21" d="M588 704c-1,-9 -4,-25 -8,-55l3 -1c9,24 22,43 29,52l-24 4z"/>
      <path class="fil18" d="M590 716l0 0c0,0 0,0 -2,-12l24 -4c3,4 5,6 5,6l-27 10z"/>
      <path class="fil24" d="M352 443c3,-1 6,-2 8,-2 2,-1 3,-1 5,-1 0,-3 0,-7 1,-11 0,-4 1,-8 2,-12 1,4 2,8 2,12 0,4 1,8 1,11 2,0 4,1 6,1 2,0 5,1 8,2 -3,1 -6,2 -8,2 -2,0 -4,1 -7,1 0,2 0,5 0,8 -1,4 -1,8 -2,13 -2,-5 -2,-9 -3,-13 0,-3 0,-6 0,-8 -2,-1 -3,-1 -5,-1 -3,0 -5,-1 -8,-2z"/>
      <path class="fil24" d="M643 459c3,-1 6,-2 9,-2 2,0 4,0 5,0 0,-4 1,-8 1,-12 1,-5 1,-9 2,-13 2,4 2,8 3,13 0,4 0,8 0,12 2,0 4,0 7,0 2,1 5,1 8,3 -3,1 -6,1 -9,2 -2,0 -4,0 -6,0 0,3 0,6 -1,9 0,5 -1,9 -2,14 -1,-5 -2,-9 -2,-14 -1,-3 -1,-6 -1,-9 -2,0 -3,0 -5,0 -3,-1 -6,-2 -9,-3z"/>
      <path class="fil24" d="M377 381c2,-1 4,-1 6,-1 2,-1 3,-1 4,-1 0,-3 1,-6 1,-9 0,-3 1,-6 2,-10 1,4 1,7 1,10 1,3 1,6 1,9 1,0 3,0 5,1 2,0 4,1 6,2 -2,0 -4,1 -6,1 -2,0 -4,0 -5,1 0,2 -1,4 -1,6 0,4 -1,7 -2,10 -1,-3 -1,-6 -1,-10 -1,-2 -1,-4 -1,-7 -1,0 -2,0 -4,0 -2,0 -4,-1 -6,-2z"/>
      <path class="fil24" d="M671 412c0,2 -1,3 -3,3 -2,0 -4,-1 -4,-3 0,-2 2,-4 4,-4 2,0 3,2 3,4z"/>
      <path class="fil24" d="M701 396c0,4 -4,7 -8,7 -4,0 -8,-3 -8,-7 0,-4 4,-8 8,-8 4,0 8,4 8,8z"/>
      <polygon class="fil24" points="321,470 321,501 323,501 323,470 "/>
      <polygon class="fil24" points="333,484 310,484 310,486 333,486 "/>
      <polygon class="fil24" points="630,388 630,419 631,419 631,388 "/>
      <polygon class="fil24" points="642,402 619,402 619,404 642,404 "/>
      <path class="fil24" d="M666 524c0,2 -2,4 -4,4 -2,0 -4,-2 -4,-4 0,-2 2,-3 4,-3 2,0 4,1 4,3z"/>
      <path class="fil24" d="M328 406c0,2 -2,3 -3,3 -2,0 -3,-1 -3,-3 0,-1 1,-3 3,-3 1,0 3,2 3,3z"/>
      <path class="fil24" d="M323 426c0,3 -2,6 -5,6 -3,0 -5,-3 -5,-6 0,-2 2,-5 5,-5 3,0 5,3 5,5z"/>
      <path class="fil25" d="M417 542l14 -9c0,0 55,10 74,30 48,-31 82,-30 82,-30l10 7 -90 36 -81 -19 -9 -15z"/>
      <polygon class="fil26" points="497,570 501,566 509,567 516,571 513,671 506,672 "/>
      <polygon class="fil27" points="506,672 497,570 501,566 509,567 513,671 "/>
      <polygon class="fil26" points="413,541 421,646 506,672 501,566 "/>
      <polygon class="fil26" points="600,536 598,643 513,671 509,567 "/>
      <path class="fil28" d="M531 654l-4 -80 0 -1 60 -20 0 84 -56 17zm-2 -79l3 77 53 -17 0 -79 -56 19z"/>
      <path class="fil28" d="M541 601l0 -9 0 -1 34 -11 0 10 -34 11zm2 -9l0 6 31 -9 0 -7 -31 10z"/>
      <path class="fil29" d="M520 561c5,-3 10,-6 15,-8 5,-3 10,-6 15,-8 6,-2 11,-4 17,-5 5,-1 11,-2 16,-2 1,0 1,0 1,0 -1,0 -3,0 -4,0 -1,0 -3,1 -4,1 -2,0 -3,1 -4,1 -2,0 -3,1 -5,1 -5,2 -11,4 -16,6 -5,2 -10,4 -16,7 -2,1 -5,2 -7,3 -3,2 -6,3 -8,4z"/>
      <path class="fil29" d="M499 562c-3,-1 -5,-3 -8,-4 -3,-1 -5,-2 -8,-4 -6,-2 -11,-4 -17,-6 -6,-2 -11,-4 -17,-5 -3,-1 -6,-2 -9,-3 -3,-1 -6,-1 -9,-2 6,1 12,2 18,3 6,2 12,3 18,5 5,2 11,4 16,7 6,3 11,6 16,9z"/>
      <path class="fil29" d="M493 561c-3,0 -5,-1 -8,-2l-9 -2c-6,-2 -12,-3 -17,-5 -6,-2 -12,-4 -17,-5 -6,-2 -12,-4 -17,-6 5,1 11,3 17,4 6,2 11,3 17,5 6,2 12,4 17,5l9 3c3,1 6,2 8,3z"/>
      <path class="fil17" d="M493 668c0,0 -18,13 -24,14 0,0 -70,83 -107,89 -47,6 -15,-79 -15,-79l24 7 15 4 24 -13 35 -18 2 -18 6 1 3 1 5 2 5 1 7 3 12 3 5 2 1 0 2 1z"/>
      <path class="fil17" d="M480 608c-1,5 -2,10 -3,14 -1,5 -2,9 -4,14 -1,5 -3,9 -6,13 -2,5 -5,9 -10,12 -2,1 -4,0 -5,-1 -1,-2 -1,-3 0,-4l0 -1c3,-2 5,-6 7,-10 2,-4 4,-8 5,-12 2,-4 4,-9 5,-13 1,-4 2,-9 4,-13l0 0c0,-2 2,-3 4,-3 2,1 3,2 3,4z"/>
      <path class="fil17" d="M496 607c-1,5 -3,10 -4,15 -2,4 -3,9 -5,14 -2,5 -4,9 -6,14 -2,5 -5,9 -9,13 -2,1 -4,1 -5,0 -1,-1 -1,-3 -1,-4l0 0c2,-4 4,-9 6,-13 2,-4 4,-9 6,-13 2,-5 4,-10 6,-14l5 -14 0 0c1,-2 3,-3 5,-2 1,0 2,2 2,4z"/>
      <path class="fil17" d="M506 625c-1,4 -2,7 -3,10 -2,4 -3,7 -5,10 -1,4 -3,7 -5,10 -1,2 -2,3 -4,5 0,1 -1,1 -2,2 -1,1 -2,1 -3,2 -2,0 -3,0 -4,-2 0,0 0,0 0,-1l0 -3c0,-1 1,-2 2,-4 1,-1 2,-2 3,-4 2,-3 3,-6 5,-9 2,-3 3,-6 5,-9l5 -10 0 0c1,-1 3,-2 5,-1 1,1 2,2 1,4z"/>
      <path class="fil17" d="M489 668c-2,0 -3,-1 -4,-2 0,-2 0,-4 2,-5 16,-6 19,-18 19,-18 0,-2 2,-3 4,-2 2,0 3,2 3,4 0,1 -4,15 -23,23 0,0 -1,0 -1,0z"/>
      <polygon class="fil17" points="456,656 465,644 497,663 483,672 "/>
      <polygon class="fil23" points="357,716 371,699 386,703 "/>
      <path class="fil23" d="M469 421l0 0 0 -3 0 0 0 -1c10,-3 19,-7 28,-12 1,0 2,1 3,1 1,0 2,1 2,1 1,0 1,0 1,0l0 0 0 0 1 -1 0 0c0,0 -2,-1 -5,-2 2,-2 4,-3 6,-5 6,-4 10,-10 14,-15 2,-3 3,-6 5,-9 2,-3 3,-8 4,-11 -1,3 -1,6 -1,9 0,1 0,1 0,2 0,2 0,4 1,5 2,2 4,3 6,3 1,0 2,0 3,-1 1,-1 2,-2 3,-3 2,-5 3,-9 3,-14 0,3 1,7 3,9 1,2 3,2 4,2 2,0 4,-1 4,-2 0,3 -1,5 -1,8l0 0 0 0c-1,1 -2,1 -3,1 -2,0 -5,-1 -6,-4 -1,4 -4,8 -9,9 0,0 -1,0 -1,0 -4,0 -8,-2 -9,-6 0,4 -2,7 -5,10 -6,9 -14,16 -24,21 -3,2 -7,3 -11,5 -5,1 -10,3 -16,3z"/>
      <path class="fil30" d="M503 407l0 0 0 0c0,0 0,0 -1,0 0,0 -1,-1 -2,-1 -1,0 -2,-1 -3,-1 1,0 1,-1 2,-1 3,1 5,2 5,2l0 0 -1 1z"/>
      <polygon class="fil8" points="204,771 743,771 743,825 204,825 "/>
      <polygon class="fil31" points="743,809 204,809 204,794 743,794 "/>
     </g>
    </g>
   </g>
  </g>
  <path class="fil32" d="M500 28c-268,0 -486,212 -486,472 0,260 218,472 486,472 268,0 486,-212 486,-472 0,-260 -218,-472 -486,-472z"/>
 </g>
</svg>
