<?xml version="1.0" encoding="UTF-8"?>
<!DOCTYPE svg PUBLIC "-//W3C//DTD SVG 1.1//EN" "http://www.w3.org/Graphics/SVG/1.1/DTD/svg11.dtd">
<!-- Creator: CorelDRAW X7 -->
<svg xmlns="http://www.w3.org/2000/svg" xml:space="preserve" width="2000px" height="2000px" version="1.1" style="shape-rendering:geometricPrecision; text-rendering:geometricPrecision; image-rendering:optimizeQuality; fill-rule:evenodd; clip-rule:evenodd"
viewBox="0 0 2000 2000"
 xmlns:xlink="http://www.w3.org/1999/xlink">
 <defs>
  <style type="text/css">
   <![CDATA[
    .str1 {stroke:#8A6B53;stroke-width:7.99961}
    .str0 {stroke:#FCC498;stroke-width:7.99961}
    .str2 {stroke:#8A6B53;stroke-width:2.99882}
    .fil25 {fill:none}
    .fil15 {fill:#FDDEC4}
    .fil16 {fill:#FCC498}
    .fil20 {fill:#F8A167}
    .fil19 {fill:#F68F4A}
    .fil24 {fill:#FAF0E4}
    .fil0 {fill:#F5F2F3}
    .fil21 {fill:#DAEDFA}
    .fil1 {fill:#DBB8B8}
    .fil14 {fill:#6A95CD}
    .fil8 {fill:#5684C0}
    .fil18 {fill:#4078BB}
    .fil12 {fill:#3C72B7}
    .fil10 {fill:#396EB0}
    .fil9 {fill:#3568B0}
    .fil2 {fill:#3669A8}
    .fil11 {fill:#316AB1}
    .fil4 {fill:#37659F}
    .fil7 {fill:#225FA6}
    .fil3 {fill:#215DA4}
    .fil5 {fill:#285899}
    .fil22 {fill:#2D4562}
    .fil6 {fill:#2F5390}
    .fil13 {fill:#2F486C}
    .fil39 {fill:black}
    .fil23 {fill:lime}
    .fil32 {fill:#2E2A2A}
    .fil36 {fill:#403F3F}
    .fil38 {fill:#997457}
    .fil37 {fill:#A17B5F}
    .fil34 {fill:#ABA1A1}
    .fil30 {fill:#AD8364}
    .fil35 {fill:#B08768}
    .fil31 {fill:#B5AAAA}
    .fil29 {fill:#E07421}
    .fil27 {fill:#E3AC81}
    .fil26 {fill:#F0B588}
    .fil28 {fill:#FCC092}
    .fil17 {fill:#FCC498}
    .fil33 {fill:white}
   ]]>
  </style>
 </defs>
 <g id="Layer_x0020_1">
  <metadata id="CorelCorpID_0Corel-Layer"/>
  <path class="fil0" d="M1991 1640c-10,51 -30,100 -51,148 -23,50 -49,100 -88,138 -93,90 -222,44 -336,47 -198,5 -396,10 -594,16 -139,3 -279,18 -419,6 -100,-8 -212,22 -295,-50 -46,-39 -77,-93 -103,-147 -66,-133 -111,-279 -104,-428 7,-169 92,-287 189,-417 52,-68 101,-122 120,-209 17,-81 11,-164 28,-245 42,-209 193,-398 394,-465 76,-25 156,-33 236,-34 95,-1 199,10 268,76 34,32 56,73 84,110 66,82 198,99 291,138 137,56 208,172 227,315 23,167 -65,297 -78,459 -7,82 29,167 91,219 25,21 54,37 78,60 53,50 74,127 71,201 -1,20 -4,41 -9,62z"/>
 </g>
 <g id="Layer_x0020_3">
  <metadata id="CorelCorpID_1Corel-Layer"/>
  <path class="fil1" d="M1911 1607c-10,46 -28,90 -47,134 -21,45 -45,90 -81,125 -86,81 -205,39 -309,42 -182,5 -364,9 -546,14 -128,3 -256,17 -384,6 -93,-8 -196,19 -272,-46 -42,-35 -70,-83 -94,-132 -61,-120 -102,-252 -96,-386 6,-154 85,-260 174,-377 47,-62 93,-111 110,-189 15,-73 10,-148 25,-221 39,-189 178,-360 362,-420 70,-23 144,-30 218,-31 87,-1 182,9 246,68 31,29 51,67 77,100 60,74 182,90 268,124 125,51 191,156 208,285 21,151 -60,268 -72,414 -6,75 27,151 84,199 23,19 50,33 71,53 49,46 69,116 65,182 -1,19 -3,37 -7,56z"/>
  <path class="fil2" d="M1463 418c-9,0 -18,1 -28,3 -53,12 -98,64 -107,117 -3,13 -3,26 -1,39 3,29 15,56 35,78 8,10 20,18 33,25 -2,28 -13,58 -27,81 20,-7 40,-14 58,-25 16,-9 30,-21 40,-35 4,0 9,0 13,0 5,0 10,0 15,-1 40,-4 79,-27 98,-62 20,-36 26,-81 13,-120 -13,-37 -42,-70 -78,-86 -20,-9 -42,-14 -64,-14zm0 8c20,0 41,4 61,13 33,15 61,46 73,82 12,35 8,79 -12,113 -17,32 -53,54 -92,59 -5,0 -9,1 -14,1 -4,0 -8,-1 -12,-1l-5 0 -2 3c-9,13 -22,24 -38,33 -12,7 -24,13 -37,17 10,-21 17,-44 18,-65l0 -5 -5 -3c-12,-6 -23,-14 -31,-23 -18,-20 -29,-46 -33,-74 -1,-12 -1,-25 1,-37 9,-51 54,-100 102,-111 8,-1 17,-2 26,-2z"/>
  <path class="fil3" d="M1469 476c-24,0 -43,19 -43,42 0,19 11,34 27,40 -13,4 -29,18 -35,24 -9,11 -19,22 -21,36 5,2 11,2 17,2 3,0 5,0 7,0 2,0 3,0 4,0 7,0 14,0 22,0 3,0 6,0 9,0 4,0 9,0 13,0 4,0 8,0 13,0 3,0 6,0 9,0 7,0 15,0 22,0 1,0 2,0 3,0 3,0 5,0 8,0 5,0 11,0 17,-2 -3,-14 -12,-25 -22,-36 -5,-6 -21,-20 -35,-24 16,-6 28,-21 28,-40 0,-23 -19,-42 -43,-42zm0 86l13 4c11,3 26,16 32,21 8,9 14,17 17,25 -2,0 -5,0 -7,0l-4 0 -4 0c-1,0 -2,0 -3,0 -8,0 -15,0 -22,0 -3,0 -6,0 -9,0 -5,0 -9,0 -13,0 -4,0 -9,0 -13,0 -3,0 -6,0 -9,0 -8,0 -15,0 -22,0 -1,0 -2,0 -4,0l-3 0 -4 0c-2,0 -5,0 -8,0 4,-8 10,-16 18,-25 5,-5 20,-18 31,-21l14 -4zm0 -79c19,0 35,16 35,35 0,15 -9,28 -23,33l-12 5 -13 -5c-14,-5 -23,-18 -23,-33 0,-19 16,-35 36,-35z"/>
  <path class="fil4" d="M372 779c-7,0 -14,1 -21,2 -35,5 -67,24 -93,50 -32,32 -49,80 -47,125 3,47 28,93 64,123 26,20 58,31 91,31 14,0 28,-2 41,-6 10,-2 20,-6 30,-11 17,11 37,18 58,21 13,2 27,3 41,3 10,0 21,-1 31,-1 -25,-19 -49,-45 -62,-75 10,-12 19,-26 24,-41 12,-31 13,-65 5,-98 -4,-14 -10,-28 -18,-41 -28,-48 -88,-82 -144,-82zm0 9l0 0c53,0 109,32 136,77 8,12 13,26 17,40 8,30 7,63 -4,92 -5,13 -13,26 -23,38l-4 5 2 5c10,22 27,44 47,63 -2,0 -5,0 -7,0 -16,0 -28,-1 -40,-3 -21,-3 -39,-10 -54,-19l-4 -3 -5 2c-10,5 -19,8 -28,11 -13,3 -26,5 -39,5 -32,0 -62,-11 -85,-29 -35,-29 -58,-74 -61,-117 -2,-43 15,-89 45,-118 18,-18 48,-41 88,-48 6,-1 12,-1 19,-1z"/>
  <path class="fil5" d="M398 1024c9,-10 16,-25 20,-43 18,-4 33,-11 43,-20 -8,31 -32,55 -63,63zm-110 -63c10,9 26,16 44,20 4,18 11,33 20,43 -31,-8 -55,-32 -64,-63zm64 -109c-9,10 -16,25 -20,43 -18,5 -34,12 -44,20 9,-31 33,-55 64,-63zm109 63c-10,-8 -25,-15 -43,-20 -4,-18 -11,-33 -20,-43 31,8 55,32 63,63zm-41 -9c27,7 45,20 45,32 0,12 -18,25 -45,33 2,-11 3,-22 3,-33 0,-11 -1,-22 -3,-32zm-45 -57c12,0 25,17 33,44 -11,-1 -22,-2 -33,-2 -11,0 -22,1 -33,2 8,-27 21,-44 33,-44zm-45 122c-28,-8 -45,-21 -45,-33 0,-12 17,-25 45,-32 -2,10 -3,21 -3,32 0,11 1,22 3,33zm45 5c-13,0 -24,-1 -35,-3 -2,-11 -3,-22 -3,-35 0,-12 1,-24 3,-35 11,-2 22,-3 35,-3 13,0 24,1 35,3 2,11 3,23 3,35 0,13 -1,24 -3,35 -11,2 -22,3 -35,3zm0 51c-12,0 -25,-17 -33,-44 11,1 22,2 33,2 11,0 22,-1 33,-2 -8,27 -21,44 -33,44zm0 -188c-55,0 -99,45 -99,99 0,55 44,99 99,99 55,0 99,-44 99,-99 0,-54 -44,-99 -99,-99z"/>
  <path class="fil6" d="M919 0c-6,0 -12,0 -17,1 -36,4 -70,24 -91,53 -22,29 -29,70 -22,106 7,35 34,66 67,80 7,4 15,6 24,8 4,16 13,30 24,41 13,14 28,26 43,37 -5,-23 -7,-51 0,-76 13,-2 25,-6 35,-13 23,-13 41,-33 51,-57 5,-11 9,-22 11,-34 6,-48 -18,-105 -61,-130 -19,-11 -42,-16 -64,-16zm0 7l0 0c22,0 44,5 61,15 38,23 63,77 57,123 -2,11 -5,22 -10,32 -10,23 -28,42 -48,54 -10,6 -21,10 -34,12l-4 1 -1 4c-5,18 -6,40 -3,62 -10,-8 -19,-16 -28,-25 -11,-13 -19,-26 -22,-39l-2 -4 -4 -1c-8,-2 -15,-4 -22,-7 -33,-14 -57,-43 -63,-75 -7,-35 1,-74 21,-101 20,-28 53,-47 86,-50 5,-1 10,-1 16,-1z"/>
  <path class="fil7" d="M855 127c0,8 -6,14 -13,14 -8,0 -14,-6 -14,-14 0,-7 6,-13 14,-13 7,0 13,6 13,13z"/>
  <path class="fil8" d="M929 127c0,8 -6,14 -14,14 -7,0 -13,-6 -13,-14 0,-7 6,-13 13,-13 8,0 14,6 14,13z"/>
  <path class="fil9" d="M1003 127c0,8 -6,14 -14,14 -7,0 -13,-6 -13,-14 0,-7 6,-13 13,-13 8,0 14,6 14,13z"/>
  <path class="fil10" d="M512 235c-19,0 -38,5 -55,13 -31,13 -56,42 -67,74 -12,34 -7,73 10,104 17,30 51,50 86,53 4,1 8,1 12,1 4,0 8,0 11,0 9,12 22,23 35,30 16,9 33,15 50,22 -12,-20 -22,-46 -23,-70 11,-6 21,-13 29,-22 16,-18 27,-42 30,-67 1,-11 1,-23 -1,-34 -8,-46 -47,-91 -93,-101 -8,-2 -16,-3 -24,-3zm0 7l0 0c8,0 15,1 22,3 42,9 81,51 88,95 2,11 2,21 1,32 -3,24 -13,46 -28,64 -7,7 -16,14 -27,20l-4 2 0 4c1,18 7,38 16,57 -11,-4 -22,-9 -33,-15 -14,-8 -24,-17 -32,-28l-2 -3 -4 0c-4,0 -7,0 -11,0 -4,0 -8,0 -12,0 -34,-4 -64,-23 -80,-51 -16,-29 -20,-67 -10,-98 11,-31 35,-58 64,-70 17,-8 35,-12 52,-12z"/>
  <path class="fil11" d="M520 414c-23,-32 -44,-65 -63,-100 21,13 41,26 56,47 18,-55 52,-102 85,-149 -9,34 -20,67 -35,99 -7,18 -15,35 -22,52 -4,9 -8,18 -11,26 -1,3 -12,23 -10,25z"/>
  <path class="fil12" d="M449 413l113 0 0 -100 -113 0 0 100zm124 12l-136 0 0 -124 136 0 0 124z"/>
  <path class="fil13" d="M1205 670c-14,-29 -17,-53 -44,-72 -32,-22 -69,-43 -105,-58 -83,-37 -177,-55 -266,-33 -37,9 -96,20 -121,51 -42,54 -15,153 -7,215 13,110 28,218 31,330 3,86 8,174 35,256 13,41 32,80 58,114 14,19 72,93 99,86 9,-2 8,-17 17,-21 17,-8 59,-1 79,-3 54,-5 108,-18 160,-33 74,-20 146,-46 216,-75 32,-14 43,-17 76,-14 29,3 59,-4 84,-20 31,-20 54,-53 60,-90 6,-32 0,-64 -6,-95 -9,-46 -18,-91 -37,-134 -25,-60 -69,-112 -123,-149 -34,-22 -72,-39 -102,-66 -56,-50 -73,-124 -104,-189z"/>
  <path class="fil14" d="M1512 1818c11,27 20,54 30,81 7,22 -127,21 -138,20 -52,-6 -100,-13 -152,-3 -32,6 -62,20 -94,23 -50,4 -103,0 -154,1 -36,0 -150,11 -178,-15 -22,-20 4,-92 3,-120 -3,-86 -20,-171 -52,-251 -19,-47 -52,-77 -56,-129 -4,-56 9,-111 21,-164 12,-52 15,-106 25,-157 2,-11 4,-22 7,-33 7,-25 5,-36 27,-50 6,-4 77,-31 78,-30 36,82 75,164 117,245 -5,-11 64,-94 73,-106 42,-59 86,-117 131,-173 2,-2 4,-5 7,-7 3,-2 6,-2 10,-3 44,-7 90,-1 135,-8 5,-1 11,-2 16,1 12,5 -4,36 -4,47 0,21 -4,42 -6,63 -3,26 -9,53 -9,80 -1,67 2,133 8,200 17,178 93,327 155,488z"/>
  <path class="fil15" d="M996 1236c-5,-11 64,-94 73,-106 42,-59 86,-117 131,-173 2,-2 4,-5 7,-7 1,-1 3,-1 4,-1 -14,-2 -28,-6 -40,-13 -23,-15 -31,-43 -34,-68 -4,-24 -11,-48 -18,-71 -15,47 -43,94 -72,131 -10,12 -21,24 -35,30 -11,5 -24,6 -36,7 -19,0 -36,-3 -53,-7 -3,5 -6,9 -10,13 -10,11 -21,19 -32,26 36,80 74,160 115,239z"/>
  <path class="fil14" d="M800 1086c-7,18 -16,35 -25,53 -32,65 -64,131 -89,199 -15,40 -39,77 -55,117 -9,21 -17,42 -25,63 -6,18 -20,38 -19,57 -13,-13 -22,-26 -32,-42 -9,-16 -32,-29 -37,-45 -1,-3 -1,-6 -1,-9 6,-47 15,-94 28,-139 6,-22 9,-42 17,-64 11,-28 23,-56 35,-84 17,-40 36,-80 55,-119 15,-30 31,-73 63,-88 17,-9 37,-7 55,-5 35,4 70,8 104,13 -13,-2 -39,27 -47,36 -16,15 -19,37 -27,57z"/>
  <path class="fil15" d="M1160 570c15,21 23,64 12,87 -7,17 -31,51 -48,41 -6,-4 -10,-12 -13,-19 -13,-38 -21,-122 23,-124 10,-1 19,6 26,15z"/>
  <path class="fil15" d="M931 959c-5,-4 -10,-6 -16,-8 -16,-6 -33,-11 -50,-17 -17,-6 -23,-15 -32,-31 -1,-1 -2,-2 -2,-4 0,-1 1,-2 2,-4 8,-11 18,-20 25,-33 2,-4 4,-9 4,-14 0,-5 -3,-10 -7,-12 -7,-3 -14,3 -20,8 -6,5 -11,11 -18,16 -4,3 -10,5 -14,9 -1,1 -1,2 -1,4 -2,5 -3,10 -4,15 -1,-15 1,-31 7,-44 3,-7 9,-13 13,-20 5,-8 23,-35 5,-39 -1,-1 -3,0 -5,0 -11,2 -24,12 -33,19 -5,4 -11,10 -16,15 -4,4 -11,10 -14,15 10,-18 18,-37 23,-57 2,-7 4,-13 4,-20 0,-8 -6,-18 -16,-14 -4,2 -7,6 -9,10 -7,16 -16,31 -26,45 -10,14 -28,25 -34,42 -5,18 2,36 11,51 17,27 35,54 55,78 6,7 11,14 19,17 10,5 22,4 33,5 24,2 39,16 58,26 21,12 44,2 58,-16 9,-11 13,-28 4,-39 -1,-1 -3,-2 -4,-3z"/>
  <path class="fil15" d="M955 1053c-2,75 -44,155 -74,214 -34,66 -63,134 -98,199 -8,15 -15,31 -23,47 -19,35 -39,70 -62,104 -26,37 -57,77 -99,98 -47,23 -82,9 -89,-43 -15,-108 23,-222 98,-300 83,-86 158,-189 218,-293 16,-28 22,-51 19,-82 -2,-15 -7,-15 11,-23 11,-6 26,-14 37,-8 17,7 25,5 36,-9 20,29 27,62 26,96z"/>
  <path class="fil15" d="M1058 610c-12,-20 -23,-42 -32,-64 -6,-13 -11,-26 -16,-39 -3,-6 -30,-86 -35,-83 -51,24 -109,63 -141,110 -33,49 -48,118 -54,176 -6,48 -5,95 -1,143 7,10 14,20 22,29 19,22 43,51 71,60 15,5 29,10 44,14 19,5 39,9 60,9 12,-1 25,-2 36,-7 14,-6 25,-18 35,-30 35,-43 68,-103 79,-157 4,-20 6,-41 6,-61 -29,-30 -54,-64 -74,-100z"/>
  <path class="fil16" d="M1423 1419c37,59 66,123 87,189 1,2 3,3 5,3 2,-1 3,-3 2,-5 -21,-67 -50,-132 -88,-191 -1,-2 -3,-3 -5,-1 -2,1 -2,3 -1,5z"/>
  <path class="fil16" d="M871 1317c32,-87 80,-173 86,-268 0,-4 0,-7 0,-12 0,-14 -1,-31 -6,-46 -5,-16 -13,-30 -26,-39 -4,-2 -9,-5 -13,-7 -18,-8 -37,-12 -57,-12 -4,0 -9,0 -13,0 -3,1 -4,2 -4,5 0,2 2,3 4,3 5,0 9,-1 13,-1 19,0 37,4 54,12 4,2 8,4 12,7 11,7 18,20 22,34 5,14 6,30 6,44 0,4 0,8 0,12 -5,92 -53,177 -86,266 0,2 1,4 3,5 2,1 4,-1 5,-3z"/>
  <path class="fil16" d="M866 932c-7,-5 -13,-10 -19,-16 -5,-6 -9,-12 -11,-20 -1,-2 -3,-3 -5,-2 -2,0 -3,2 -3,4 3,9 8,17 14,23 6,7 12,12 19,17 2,1 4,1 5,-1 2,-1 1,-4 0,-5z"/>
  <path class="fil16" d="M828 919c1,-11 8,-20 15,-29 8,-9 16,-19 19,-32 1,-2 1,-4 1,-6 0,-3 0,-6 -3,-9 -3,-4 -7,-6 -12,-6 -1,0 -2,0 -3,1 -5,0 -9,3 -12,5 -5,3 -10,6 -16,9 -4,3 -8,6 -12,10 -10,11 -12,25 -13,38 -1,2 1,4 3,4 2,0 4,-1 4,-3 2,-13 4,-25 11,-33 3,-4 7,-7 12,-9 5,-3 10,-7 15,-10 3,-2 7,-3 10,-4l1 0c3,0 5,1 6,2 1,1 1,3 2,5 0,1 -1,3 -1,4 -3,11 -10,20 -18,29 -7,10 -15,20 -17,33 0,2 1,4 4,4 2,0 4,-1 4,-3z"/>
  <path class="fil16" d="M802 880l0 -1c0,-23 10,-47 26,-64 2,-2 5,-4 6,-7 2,-3 4,-6 4,-10 0,-1 0,-3 -1,-4 -1,-4 -4,-6 -7,-8 -3,-1 -7,-2 -10,-2l-1 0c-9,1 -17,4 -24,9 -7,4 -14,10 -20,15 -1,2 -1,4 0,6 1,1 4,1 5,0 6,-6 13,-11 19,-15 6,-4 13,-7 20,-7l1 0c2,0 5,0 7,1 1,1 2,2 3,3l0 2c0,1 0,3 -2,5 -1,3 -3,5 -5,7 -18,18 -28,44 -28,69l0 1c0,2 1,4 3,4 3,0 4,-2 4,-4z"/>
  <path class="fil17" d="M928 966c15,4 31,7 46,7 13,0 25,-2 36,-8 11,-6 19,-14 26,-21 11,-11 21,-23 29,-36 1,-2 1,-4 -1,-5 -2,-2 -4,-1 -5,1 -8,12 -18,24 -28,34 -8,8 -15,15 -24,20 -10,5 -21,7 -33,7 -14,0 -29,-3 -44,-7 -2,0 -4,1 -4,3 -1,2 0,4 2,5z"/>
  <path class="fil18" d="M1364 939c-4,5 -7,11 -10,17 -14,28 -15,61 -17,90 -2,24 -3,48 -3,71 0,10 1,20 1,29 2,67 11,134 26,199 1,2 3,3 5,2 2,0 3,-2 3,-4 -16,-65 -24,-131 -26,-197 -1,-9 -1,-19 -1,-29 0,-23 1,-47 3,-70 2,-30 3,-61 16,-88 2,-5 6,-11 10,-16 1,-2 1,-4 -1,-5 -2,-2 -4,-1 -6,1z"/>
  <path class="fil13" d="M662 513c-21,53 -33,116 -33,174 0,5 0,10 0,14 3,72 10,143 10,214 0,8 0,16 0,24 -3,84 -16,168 -34,250 -8,34 -18,75 -18,115 0,28 5,55 20,79 1,2 3,2 5,1 2,-1 3,-3 1,-5 -13,-22 -18,-48 -18,-75 0,-39 10,-79 17,-113 19,-83 32,-167 34,-252 1,-8 1,-16 1,-24 0,-72 -8,-143 -10,-214 -1,-5 -1,-9 -1,-14 0,-57 13,-120 33,-171 1,-2 0,-4 -2,-5 -2,-1 -4,0 -5,2z"/>
  <path class="fil13" d="M1191 651c28,76 72,147 131,203 30,28 64,52 94,80 50,45 91,100 120,161 1,2 3,3 5,2 2,-1 3,-3 2,-5 -29,-62 -71,-118 -122,-164 -31,-28 -64,-52 -94,-80 -58,-54 -101,-124 -129,-199 0,-2 -2,-3 -4,-3 -2,1 -4,3 -3,5z"/>
  <polygon class="fil19" points="1369,1882 849,1882 849,1910 1348,1910 "/>
  <polygon class="fil19" points="1139,1882 1119,1910 340,1882 206,1361 227,1333 1026,1333 "/>
  <polygon class="fil20" points="1119,1910 320,1910 206,1361 1005,1361 "/>
  <path class="fil21" d="M720 1613c0,61 -47,111 -106,111 -59,0 -107,-50 -107,-111 0,-61 48,-111 107,-111 59,0 106,50 106,111z"/>
  <path class="fil22" d="M236 1957c-12,0 -23,-10 -23,-23 0,-13 10,-23 23,-23 471,-4 956,-4 1441,-1 13,0 23,11 23,23 0,13 -11,23 -23,23 -485,-3 -970,-3 -1440,1l-1 0z"/>
  <path class="fil15" d="M1470 1595c-41,-60 -54,-132 -54,-204 1,-47 28,-69 75,-63 13,2 23,8 34,11 10,3 23,1 31,9 5,6 7,14 9,21 20,70 37,140 53,210 5,28 37,136 -6,142 -14,3 -28,-7 -40,-17 -36,-30 -68,-64 -96,-101 -2,-3 -4,-6 -6,-8z"/>
  <path class="fil14" d="M1551 1414c-27,-1 -54,1 -81,2 -24,1 -84,10 -97,-17 -9,-19 -8,-48 -11,-69 -4,-25 -8,-49 -12,-74 -8,-50 -15,-99 -16,-149 0,-19 4,-38 7,-57 5,-30 6,-60 13,-90 11,-50 66,8 85,23 36,28 54,67 74,109 27,57 50,117 69,178 9,30 17,61 24,92 5,24 1,45 12,67 -7,-3 -14,-5 -21,-7 -15,-5 -31,-7 -46,-8z"/>
  <path class="fil23" d="M1251 1151c-3,11 -11,21 -22,27 -2,1 -5,2 -7,2 3,-26 4,-53 4,-80 5,-2 11,-5 16,-2 6,4 9,12 11,18 2,12 2,24 -2,35zm34 -41c-4,-15 -13,-30 -27,-37 -10,-5 -21,-6 -31,-3 0,-9 -1,-19 -5,-24 -9,-11 -31,-17 -44,-20 -38,-9 -74,-9 -112,0 -13,3 -36,9 -44,20 -7,9 -4,30 -4,41 -1,35 1,71 4,106 1,12 3,25 11,34 4,4 9,7 14,10 31,17 71,22 105,16 16,-3 30,-9 44,-16 5,-3 10,-6 14,-10 4,-5 7,-11 9,-18l0 0c16,3 32,-6 43,-17 9,-10 15,-22 19,-36 5,-15 7,-31 4,-46z"/>
  <path class="fil22" d="M1037 1044c3,-2 6,-3 9,-4 27,-8 58,-14 86,-10 24,3 54,5 74,18 3,1 5,3 6,6 2,7 -7,11 -13,12 -27,5 -54,7 -80,6 -27,-1 -53,0 -78,-9 -3,-2 -7,-4 -8,-8 -1,-3 0,-8 3,-10l1 -1z"/>
  <path class="fil24" d="M1097 990c-4,-2 -8,-4 -11,-8 -17,-19 7,-23 24,-23 5,0 10,1 13,1 1,0 3,0 5,0 15,0 31,-5 38,-18 2,-3 2,-7 2,-11 -3,-11 -19,-11 -31,-12 -11,0 -25,-4 -30,-14 -4,-9 -1,-19 5,-26 6,-7 16,-10 25,-11 10,-1 20,0 29,-4 10,-5 16,-17 17,-29 1,-11 -2,-23 -5,-34 13,5 22,16 25,29 3,13 -1,28 -10,38 -4,4 -9,7 -12,12 -2,5 -2,12 2,15 3,2 5,2 8,2 11,3 21,12 24,22 1,7 1,14 -2,21 -7,6 -14,12 -21,18 -5,2 -11,4 -17,5 -8,2 -16,7 -24,9 -7,1 -14,2 -21,6 2,2 6,5 10,7 -14,1 -28,2 -43,5z"/>
  <path class="fil15" d="M1625 1688c-14,-37 -32,-73 -54,-108 -28,-44 -63,-85 -95,-128 -47,-62 -87,-127 -121,-195 -2,-5 -3,-8 -3,-10 -5,-31 -5,-62 -7,-94 -1,-26 -8,-54 -25,-76 -14,-16 -46,-32 -68,-6 14,2 18,10 16,22 -3,13 -12,4 -20,13 -5,6 0,18 0,26 0,1 0,3 -2,4 -1,1 -3,1 -5,2 -6,1 -8,8 -10,14 -2,8 3,16 -1,23 -9,16 -22,15 -12,35 3,8 14,26 19,33 50,68 50,151 75,228 12,38 36,74 46,112 16,59 59,125 109,168 28,25 65,44 105,48 87,8 69,-64 53,-111z"/>
  <path class="fil25 str0" d="M1129 712c0,7 1,100 -68,195"/>
  <g id="_2159422516128">
   <path class="fil26" d="M929 731c27,49 34,54 -1,88 10,5 25,5 35,6 -9,0 -23,2 -32,0 -36,-6 30,-7 -2,-94z"/>
  </g>
  <path class="fil25" d="M929 731c0,3 11,20 17,42 5,20 -23,46 -22,46 7,7 29,6 39,6"/>
  <g id="_2159422514752">
   <path class="fil27" d="M986 803c-3,1 -8,2 -6,6 -7,3 -4,1 -9,8 1,-9 1,-5 1,-14 7,-1 6,-2 14,0z"/>
  </g>
  <path class="fil25" d="M986 803c-11,0 -11,4 -15,14"/>
  <path class="fil13" d="M932 643c0,0 8,-86 121,-54 -97,2 -121,54 -121,54z"/>
  <path class="fil13" d="M754 682c0,0 31,-43 122,-41 0,0 -62,-54 -122,41z"/>
  <g id="_2159422513376">
   <path class="fil28" d="M964 682c-3,-24 35,-39 53,-41 25,-3 2,0 28,-4 -18,5 -81,19 -81,45z"/>
  </g>
  <path class="fil25" d="M964 682c-2,-9 16,-26 25,-30 20,-11 36,-9 56,-15"/>
  <g id="_2159422513664">
   <path class="fil28" d="M887 711c-25,-8 -55,-1 -79,6 30,-15 46,-23 79,-6z"/>
  </g>
  <path class="fil25" d="M887 711c-14,-7 -45,-8 -61,-1 0,0 -17,7 -18,7"/>
  <path class="fil13" d="M1139 480c-38,-70 -113,-149 -200,-132 -22,4 -37,-1 -59,-2 -23,-1 -46,5 -68,13 -94,36 -151,124 -169,220 -10,51 -1,96 1,146 2,40 2,80 5,119 1,24 4,47 7,70 -2,12 1,26 1,37 2,67 -9,134 -21,200 -15,80 -31,160 -27,241 3,81 29,164 88,220 -6,-74 1,-155 18,-228 17,-73 63,-136 78,-210 10,-49 11,-99 10,-149 -1,-51 -4,-114 -23,-164 -5,-50 -6,-101 0,-151 6,-58 21,-127 54,-176 32,-47 90,-86 141,-110 5,-3 32,77 35,83 5,13 10,26 16,39 9,22 20,44 32,64 21,38 48,73 78,104 31,31 67,57 105,77 -29,-104 -49,-216 -102,-311z"/>
  <g id="_2159422511168">
   <path class="fil29" d="M935 881c33,-7 4,-29 44,-23 0,0 0,0 0,0 0,0 0,0 0,0l0 0 0 0 0 -1 0 0c22,-23 16,10 50,-11 -7,5 -15,9 -24,9 -39,-3 -10,16 -28,9 -32,-13 -8,13 -42,17zm44 -23c0,0 0,0 0,0l0 -1 0 0c0,0 0,1 0,1z"/>
  </g>
  <path class="fil25" d="M935 881c25,-2 16,-33 41,-21 12,6 0,-16 26,-7 8,2 21,-2 27,-7"/>
  <g id="_2159422511648">
   <path class="fil30" d="M822 773c26,-1 37,-3 61,-13 -8,21 -42,19 -61,13z"/>
  </g>
  <path class="fil25" d="M822 773c23,5 36,1 56,-10 1,0 4,-3 5,-3"/>
  <ellipse class="fil31" transform="matrix(0.859903 -0.170469 0.171344 0.855512 851.386 741.296)" rx="20" ry="27"/>
  <ellipse class="fil32" transform="matrix(1.48777 -0.34322 0.229976 0.986731 853.613 747.909)" rx="8" ry="17"/>
  <circle class="fil33" transform="matrix(0.854146 -0.197047 0.198058 0.849784 840.032 737.848)" r="6"/>
  <ellipse class="fil34" transform="matrix(-0.913255 0.480617 0.483084 0.908591 1011.69 693.658)" rx="20" ry="27"/>
  <g id="_2159422510176">
   <path class="fil35" d="M1058 699c-22,17 -34,24 -62,31 23,14 50,-12 62,-31z"/>
  </g>
  <path class="fil25" d="M1058 699c-15,20 -29,27 -55,32 -1,0 -5,0 -7,-1"/>
  <ellipse class="fil36" transform="matrix(-1.53563 0.748182 0.501324 1.01848 1010.76 700.88)" rx="8" ry="17"/>
  <circle class="fil33" transform="matrix(-1.13122 0.509808 0.553973 1.04103 1016.39 680.305)" r="6"/>
  <circle class="fil33" transform="matrix(0.854146 -0.197047 0.198058 0.849784 840.963 733.138)" r="6"/>
  <g id="_2159422505600">
   <path class="fil37" d="M1052 650c-43,5 -65,9 -84,51 21,-34 44,-44 81,-28 6,1 12,-3 13,-10 1,-6 -3,-12 -10,-13z"/>
  </g>
  <path class="fil25" d="M1050 661c-26,-4 -42,-7 -60,14 -8,9 -17,12 -22,26"/>
  <g id="_2159422504960">
   <path class="fil38" d="M799 735c32,-20 49,-30 87,-11 -34,-12 -56,-7 -72,25 -4,4 -10,5 -15,1 -4,-4 -4,-10 0,-15z"/>
  </g>
  <path class="fil25" d="M806 742c16,-18 25,-28 50,-24 10,1 18,-1 30,6"/>
  <ellipse class="fil25 str1" cx="853" cy="756" rx="57" ry="52"/>
  <ellipse class="fil25 str1" cx="1017" cy="699" rx="57" ry="52"/>
  <path class="fil25 str2" d="M962 715c-2,-1 -4,-2 -6,-3 -22,-6 -45,5 -52,24"/>
  <g id="_2159422503424">
   <path class="fil39" d="M1068 664c-1,0 -1,0 -1,1l0 0c3,0 14,-15 16,-17 -3,6 -8,22 -14,26 -3,0 -5,-2 -6,-5 0,-3 2,-5 5,-5z"/>
  </g>
  <path class="fil25" d="M1069 669c2,-1 12,-18 14,-21"/>
  <g id="_2159422502720">
   <path class="fil39" d="M789 759c-4,-6 -10,-14 -16,-17 10,2 13,9 19,7 3,1 5,4 4,6 -1,3 -4,4 -7,4z"/>
  </g>
  <path class="fil25" d="M791 754c-7,-3 -11,-11 -18,-12"/>
  <g id="_2159422501408">
   <path class="fil29" d="M970 888c13,-6 23,-9 36,-14 -5,14 -22,16 -36,14z"/>
  </g>
  <path class="fil25" d="M970 888c8,0 31,-7 36,-14"/>
 </g>
</svg>
